<svg width="390" height="288" viewBox="0 0 390 288" fill="none" xmlns="http://www.w3.org/2000/svg">
<path d="M51.9299 210.342H71.2205V210.273C69.5043 209.094 67.6507 205.904 67.6507 200.356V173.45C67.6507 167.972 69.5729 164.713 71.2205 163.603V163.465H51.9299V163.603C53.6461 164.713 55.4997 167.903 55.4997 173.45V184.338H37.0329V173.45C37.0329 167.972 38.8864 164.713 40.534 163.603V163.465H21.2434V163.603C23.0283 164.713 24.8132 167.903 24.8132 173.45V187.319C19.0466 190.717 16.2319 196.404 16.2319 202.367C16.2319 203.893 16.3692 205.488 16.7811 207.014C18.2228 212.769 22.4104 216.375 25.2937 217.901C27.2846 218.941 29.2068 219.357 31.2663 219.357C33.2571 219.357 35.3166 218.941 37.4448 218.109C42.6622 216.098 45.7514 210.897 45.7514 205.28C45.7514 204.24 45.6141 203.2 45.4082 202.159C44.2411 196.75 39.9848 192.728 33.5317 192.728H33.0512C28.5203 192.867 25.3624 196.612 25.3624 200.287C25.3624 201.189 25.5683 202.159 25.9802 202.992C26.7354 204.378 28.0397 205.627 29.6873 205.765H29.9619C32.7079 205.765 33.8063 202.853 36.7583 202.853C39.7789 202.853 41.3578 205.003 41.3578 207.499C41.3578 211.174 38.0626 215.82 31.5409 215.82C25.1564 215.82 21.518 210.966 20.4882 205.211C20.4196 204.725 20.4196 204.24 20.4196 203.754C20.4196 197.167 23.9207 192.243 29.2068 189.816C31.4722 188.776 38.1313 188.498 40.9459 188.498H55.4997V200.356C55.4997 205.835 53.5775 209.094 51.9299 210.273L51.9299 210.342Z" fill="white"/>
<path d="M106.507 181.287C102.662 177.75 97.788 176.502 92.7765 176.502C85.4996 176.502 78.36 179.622 75.4081 186.765C74.5843 188.776 74.1724 191.064 74.1724 193.699C74.1724 198.484 75.82 203.061 79.4584 206.251C83.0969 209.51 87.6964 210.758 92.5019 210.758C97.582 210.758 102.662 209.302 106.506 205.766C109.664 202.506 111.449 197.999 111.449 193.422C111.449 188.845 109.87 184.476 106.507 181.287ZM97.788 203.408C96.8269 206.043 95.1793 207.36 92.8452 207.36C88.9321 207.36 87.7651 204.171 87.0786 201.05C86.4607 198.415 86.4607 195.918 86.4607 193.214C86.4607 191.55 86.5294 189.885 86.6667 188.29C87.0786 184.684 88.3829 179.9 92.8452 179.9C98.7491 179.9 99.161 189.123 99.161 193.353C99.161 197.791 98.6804 201.119 97.788 203.408Z" fill="white"/>
<path d="M138.497 204.656C137.33 204.864 135.408 205.141 133.829 205.141C132.937 205.141 132.182 205.072 131.564 204.795C129.847 204.101 129.504 202.09 129.367 200.426V181.078H138.085V176.918H129.367V160.552L128.818 159.859L124.836 160.205C122.365 172.272 119.344 177.126 110.282 177.889V181.078H118.108V200.911C118.108 204.032 118.932 206.459 120.58 208.123C122.227 209.787 124.767 210.62 128.131 210.62C131.976 210.62 134.996 209.718 138.497 208.123V204.656Z" fill="white"/>
<path d="M168.978 208.193C176.804 204.24 182.983 194.878 182.983 183.714C181.816 168.319 170.557 161.038 160.26 161.038C155.935 161.038 153.875 164.089 153.875 166.793C153.875 169.359 155.66 171.786 159.024 171.786C159.848 171.786 160.809 171.647 161.839 171.301C163.28 170.815 164.722 170.538 166.095 170.538C173.852 170.538 179.55 178.166 179.55 186.418C179.55 188.498 179.138 190.579 178.383 192.659C176.461 197.721 170.145 203.2 165.065 204.933C164.173 205.28 163.143 205.419 162.113 205.419C159.367 205.419 156.484 204.309 154.905 202.229C153.326 200.149 152.502 197.028 152.433 192.937H173.715V190.509C173.715 188.568 173.44 186.834 172.823 185.1C172.273 183.436 171.381 181.911 170.145 180.732C169.527 180.038 168.841 179.484 168.086 178.998C167.262 178.443 166.369 178.027 165.34 177.681C164.379 177.264 163.28 177.056 162.044 176.848C160.809 176.64 159.436 176.571 157.925 176.571C155.179 176.571 152.708 176.987 150.511 177.958C148.246 178.929 146.392 180.177 144.882 181.772C143.44 183.298 142.342 185.1 141.518 187.112C140.763 189.123 140.351 191.272 140.351 193.491C140.351 195.988 140.694 198.276 141.449 200.356C142.205 202.437 143.303 204.24 144.813 205.765C146.324 207.291 148.177 208.539 150.511 209.441C152.845 210.342 155.523 210.828 158.749 210.828C160.603 210.828 162.25 210.55 163.761 210.134C165.271 209.718 167.605 209.025 168.978 208.193ZM152.434 189.469C152.571 186.141 153.051 183.714 153.944 182.188C154.836 180.662 156.003 179.969 157.445 179.969C159.024 179.969 160.191 180.87 160.877 182.673C161.152 183.506 161.358 184.546 161.495 185.725C161.633 186.973 161.701 188.152 161.701 189.331L152.434 189.469Z" fill="white"/>
<path d="M188.612 200.426C188.612 205.835 186.69 209.094 185.042 210.273V210.412H203.029V210.273C201.45 209.094 199.665 205.904 199.665 200.426V160.483L199.047 159.859L182.64 160.621V163.742C185.66 164.019 188.544 164.921 188.544 168.458L188.612 200.426Z" fill="white"/>
<path d="M263.578 169.428C260.626 177.195 257.606 184.962 254.585 192.728L243.807 163.534H222.388V166.863C227.125 167.209 229.734 168.388 229.734 173.658V200.426C229.734 205.904 227.812 209.163 226.164 210.273V210.412H237.903V210.273C236.187 209.163 234.402 205.973 234.333 200.426V170.677L248.201 208.955H252.8L267.491 170.469V200.426C267.491 205.904 265.569 209.163 263.921 210.273V210.412H283.212V210.273C281.427 209.163 279.574 205.974 279.574 200.426V172.757C279.574 167.764 281.564 164.713 283.143 163.673V163.534H264.951C264.951 165.892 263.578 169.428 263.578 169.428Z" fill="white"/>
<path d="M320.42 210.412V210.273C318.841 209.094 317.057 205.904 317.057 200.426V196.196C317.125 193.353 317.194 190.44 317.194 187.528C317.194 183.852 316.095 180.454 312.732 178.513C310.192 177.056 306.622 176.502 303.189 176.502C301.13 176.502 297.903 176.71 296.187 177.056C292.823 177.75 288.635 179.414 286.919 182.743C286.645 183.298 286.507 183.991 286.507 184.615C286.507 185.933 287.057 187.25 288.018 188.152C288.979 189.123 290.695 189.539 292.411 189.539C293.441 189.539 294.402 189.4 295.226 189.123C297.354 188.429 299.345 186.696 299.345 184.823C299.345 183.575 299.07 182.049 298.521 180.871C298.384 180.524 300.718 179.761 301.679 179.761C304.356 179.761 306.004 182.604 306.004 186.21V188.984C302.228 190.301 297.148 191.758 293.51 193.075C289.047 194.67 286.164 197.305 286.164 202.437C286.164 207.499 290.695 210.758 295.569 210.758C300.031 210.758 303.121 209.649 306.347 206.528C306.896 207.777 307.72 208.817 308.887 209.58C309.436 209.926 310.192 210.273 311.29 210.412L320.42 210.412ZM305.867 202.784C305.317 203.408 304.768 203.963 304.082 204.379C303.258 204.864 302.434 205.072 301.679 205.072C299.619 205.072 297.972 203.408 297.972 200.703C297.972 198.692 298.727 196.751 300.306 195.502C301.816 194.324 304.288 193.353 306.004 192.729L305.867 202.784Z" fill="white"/>
<path d="M337.376 185.863C338.543 184.476 340.328 183.089 342.25 182.673C342.045 183.506 341.907 184.268 341.907 184.962C341.907 188.152 344.173 190.163 347.811 190.163C351.381 190.163 353.646 187.042 353.646 183.714C353.646 179.553 350.9 176.71 346.713 176.71C342.868 176.71 339.779 178.929 337.376 181.772V177.75L336.69 177.056L321.038 177.889V181.009C323.44 181.217 326.255 182.188 326.255 185.101V200.426C326.255 205.835 324.333 209.094 322.685 210.273V210.412H340.671V210.273C339.093 209.094 337.376 205.904 337.376 200.426V185.863Z" fill="white"/>
<path d="M34.7419 286.562H56.7813V286.403C54.8205 285.056 52.7028 281.412 52.7028 275.153C52.7028 271.984 52.7028 264.22 53.8793 261.922C57.1735 255.822 61.801 249.483 65.4873 243.858C67.5265 240.689 70.1148 238.55 73.8011 237.996V232.925H52.0754V237.996C53.8009 238.312 55.3695 238.55 56.9382 239.184C58.899 240.055 59.3696 241.323 59.3696 242.432C59.3696 242.987 59.2127 243.541 59.0558 243.858C56.6244 249.404 53.0166 254.396 50.4283 258.436C45.4871 250.038 40.7812 241.482 36.0753 232.925H16.2319L16.3888 237.679H16.9378C20.5457 237.679 23.6046 239.184 25.9575 242.908C29.8791 249.167 33.487 255.663 37.1733 262.16L37.9576 263.507C38.5066 264.299 38.7419 265.17 38.7419 266.121C38.8204 267.626 38.8204 269.132 38.8204 270.637V275.153C38.8204 281.333 36.6243 285.056 34.7419 286.403L34.7419 286.562Z" fill="white"/>
<path d="M139.605 233.004H88.8599V248.771H92.5462C93.6442 245.364 94.9776 242.115 97.1737 239.976C99.056 238.154 100.625 237.362 101.958 237.362C105.723 237.362 107.291 243.621 107.291 248.533V275.153C107.291 281.333 105.095 285.056 103.213 286.403V286.562H125.252V286.403C123.292 285.056 121.174 281.412 121.174 275.153V248.533C121.174 243.779 122.586 237.441 126.429 237.441C127.684 237.441 129.174 238.075 130.899 239.659C133.331 241.799 134.821 245.205 135.919 248.771H139.605V233.004Z" fill="white"/>
<path d="M157.88 249.246L157.174 248.533L138.899 249.483V252.969C141.645 253.366 145.252 254.237 145.252 257.723V275.153C145.252 281.333 143.056 285.056 141.174 286.403V286.562H161.723V286.403C159.919 285.056 157.88 281.412 157.88 275.153V249.246ZM158.115 235.936C158.115 231.737 154.586 228.805 150.586 228.805C146.586 228.805 143.056 231.737 143.056 235.936C143.056 240.055 146.743 243.066 150.586 243.066C154.507 243.066 158.115 240.055 158.115 235.936Z" fill="white"/>
<path d="M196.704 284.026C205.645 279.511 212.704 268.815 212.704 256.059C211.37 238.471 198.508 230.152 186.743 230.152C181.802 230.152 179.449 233.638 179.449 236.728C179.449 239.659 181.488 242.432 185.331 242.432C186.272 242.432 187.37 242.274 188.547 241.878C190.194 241.323 191.841 241.006 193.41 241.006C202.272 241.006 208.782 249.721 208.782 259.149C208.782 261.526 208.312 263.903 207.449 266.28C205.253 272.063 198.037 278.322 192.233 280.303C191.213 280.699 190.037 280.857 188.861 280.857C185.723 280.857 182.429 279.59 180.625 277.213C178.821 274.836 177.88 271.271 177.802 266.597H202.115V263.824C202.115 261.605 201.802 259.625 201.096 257.644C200.468 255.742 199.449 253.999 198.037 252.653C197.331 251.86 196.547 251.227 195.684 250.672C194.743 250.038 193.723 249.563 192.547 249.167C191.449 248.691 190.194 248.454 188.782 248.216C187.37 247.978 185.802 247.899 184.076 247.899C180.939 247.899 178.115 248.374 175.605 249.484C173.017 250.593 170.9 252.019 169.174 253.841C167.527 255.584 166.272 257.644 165.331 259.941C164.468 262.239 163.998 264.695 163.998 267.23C163.998 270.083 164.39 272.697 165.252 275.074C166.115 277.451 167.37 279.511 169.096 281.254C170.821 282.997 172.939 284.423 175.605 285.453C178.272 286.482 181.331 287.037 185.017 287.037C187.135 287.037 189.017 286.72 190.743 286.245C192.468 285.769 195.135 284.977 196.704 284.026ZM177.802 262.635C177.958 258.832 178.507 256.059 179.527 254.316C180.547 252.573 181.88 251.781 183.527 251.781C185.331 251.781 186.664 252.811 187.449 254.871C187.762 255.822 187.998 257.01 188.155 258.357C188.311 259.783 188.39 261.13 188.39 262.477L177.802 262.635Z" fill="white"/>
<path d="M231.842 258.515C233.175 256.931 235.214 255.346 237.41 254.871C237.175 255.822 237.018 256.693 237.018 257.486C237.018 261.13 239.606 263.428 243.763 263.428C247.842 263.428 250.43 259.862 250.43 256.059C250.43 251.306 247.293 248.058 242.508 248.058C238.116 248.058 234.587 250.593 231.842 253.841V249.246L231.057 248.454L213.175 249.404V252.97C215.92 253.207 219.136 254.316 219.136 257.644V275.153C219.136 281.333 216.94 285.056 215.057 286.403V286.562H235.606V286.403C233.802 285.056 231.842 281.412 231.842 275.153V258.515Z" fill="white"/>
<path d="M269.254 258.515C270.587 256.931 272.626 255.346 274.822 254.871C274.587 255.822 274.43 256.693 274.43 257.486C274.43 261.13 277.019 263.428 281.175 263.428C285.254 263.428 287.842 259.862 287.842 256.059C287.842 251.306 284.705 248.058 279.921 248.058C275.528 248.058 271.999 250.593 269.254 253.841V249.246L268.469 248.454L250.587 249.404V252.97C253.332 253.207 256.548 254.316 256.548 257.644V275.153C256.548 281.333 254.352 285.056 252.469 286.403V286.562H273.018V286.403C271.215 285.056 269.254 281.412 269.254 275.153V258.515Z" fill="white"/>
<path d="M322.744 287.037C327.921 287.037 335.921 284.502 340.313 281.57C349.097 275.866 353.646 266.834 353.646 258.515C353.646 256.614 353.411 254.792 352.862 252.969C351.686 249.008 348.705 247.344 345.882 247.344C342.509 247.344 339.215 249.721 339.215 253.286C339.215 254.633 339.685 256.139 340.705 257.723C342.431 260.338 343.215 263.11 343.215 265.725C343.215 270.399 340.783 274.757 337.019 277.926C335.215 279.431 331.45 281.57 328.627 281.57C326.666 281.57 325.254 280.54 325.254 277.609C325.254 271.905 325.568 266.2 325.568 260.496C325.568 256.218 324.234 252.336 320.391 250.117C317.411 248.454 313.411 247.82 309.489 247.82C307.136 247.82 304.862 248.057 302.901 248.454C299.058 249.246 294.273 251.147 292.312 254.95C291.999 255.663 291.842 256.455 291.842 257.168C291.842 258.674 292.469 260.1 293.489 261.13C294.665 262.239 296.783 262.714 298.744 262.714C299.842 262.714 300.94 262.635 301.803 262.318C304.234 261.526 305.097 259.545 305.097 257.406C305.097 256.535 304.94 255.584 304.705 254.712C304.548 254.079 304.234 253.445 304.077 252.89C305.489 251.94 306.666 251.543 307.764 251.543C310.822 251.543 312.705 254.792 312.705 258.911V262.16C308.391 263.665 302.822 265.25 298.587 266.755C293.489 268.656 290.195 271.588 290.195 277.451C290.195 283.313 295.215 287.037 300.783 287.037C305.881 287.037 309.411 285.69 313.175 282.204C313.724 283.551 314.666 284.739 315.999 285.611C317.411 286.562 319.685 287.037 322.744 287.037ZM312.548 277.847C311.921 278.639 311.293 279.194 310.509 279.669C309.568 280.223 308.626 280.461 307.764 280.461C305.411 280.461 303.528 278.56 303.528 275.47C303.528 273.172 304.391 271.033 306.195 269.528C307.842 268.339 310.43 267.309 312.391 266.517C312.47 266.438 312.626 266.359 312.705 266.359L312.548 277.847Z" fill="white"/>
<path fill-rule="evenodd" clip-rule="evenodd" d="M19.6878 8.54416C15.5978 3.69912 8.06465 4.03494 7.31231 11.297C8.60468 11.0911 9.72411 11.0463 10.5541 11.4326C16.2662 14.0719 12.8036 24.684 3.979 21.0678C-2.69262 18.3329 0.0806682 7.77854 4.60644 3.7565C10.3431 -1.34238 19.4578 -1.71099 24.2367 5.52298C29.3497 13.2624 23.8909 25.9456 20.265 33.9326C11.7598 51.493 13.6802 73.1583 13.6802 73.1583C7.37255 62.6698 13.0187 42.232 18.9639 30.0764C23.8244 20.146 23.0761 12.5517 19.6878 8.54416ZM9.44753 9.60208C9.25086 9.66453 14.4097 4.29352 18.7404 9.84362C23.386 15.8135 19.7912 24.0764 15.7886 33.2764C15.5877 33.7383 15.3856 34.2028 15.1836 34.6692C12.1278 41.73 9.68075 50.3326 9.5434 59.4888C9.5434 59.4888 5.83672 34.2337 10.778 22.9812C19.5377 16.4652 12.3938 8.68165 9.44753 9.60208ZM48.3275 27.4437C23.5353 46.3361 19.6469 76.1357 47.4479 99.7062C20.1402 89.7664 17.5717 49.9709 35.7781 28.2995C35.7781 28.2995 46.64 24.1911 38.8767 18.571C38.8767 18.571 42.1676 22.3263 38.6551 25.0756C36.0117 27.1476 31.9632 27.0322 29.4199 24.6774C22.5401 18.3109 30.1348 8.17993 38.4728 8.37449C42.2262 8.46278 46.526 11.4017 48.2464 14.9961C50.8336 20.4037 48.4015 27.3863 48.3275 27.4437ZM83.3788 36.3398C77.6877 26.3943 66.1257 26.7494 56.8029 30.6131C45.9379 35.1157 36.8336 46.062 33.671 55.8218C25.2763 80.5827 55.9173 102.544 55.9173 102.544C44.4583 96.0629 32.1448 83.2135 30.2559 69.2813C26.6516 42.6836 49.2772 29.7888 49.2772 29.7888C70.9668 16.323 85.6108 22.909 91.577 27.0439C101.5 33.9162 106.62 49.8337 92.3743 55.1088C85.186 57.7497 77.9203 54.9843 76.4238 47.5952C74.1228 36.2153 89.2442 35.841 86.1391 45.5358C88.9751 42.5449 88.3458 38.889 84.3519 36.9626C83.9336 36.7599 83.5546 36.6469 83.3788 36.3398ZM25.9861 22.1904C25.9861 22.1904 26.3367 24.3321 28.5937 26.0172C28.7032 26.0307 28.4499 26.2704 27.9469 26.7465C27.0196 27.6239 25.244 29.3042 23.3284 31.8508C23.8744 30.0377 24.3753 27.9449 24.7998 26.1718C25.3418 23.9075 25.759 22.1645 25.9861 22.1904ZM3.51644 23.0216C3.51644 23.0216 3.52902 23.0279 3.55211 23.0413C3.8598 23.2199 6.11108 24.5262 8.82539 23.808C3.70243 40.7875 7.03074 63.6221 13.2769 80.3349C4.42071 70.2897 1.68051 54.8563 1.42391 43.1878C1.15794 31.1463 3.51918 23.0244 3.51918 23.0244C3.51721 23.0227 3.51644 23.0216 3.51644 23.0216ZM29.6435 26.9663L29.64 26.9695L29.6435 26.9663ZM30.7501 89.0907C44.0843 107.52 77.8635 109.704 79.0457 111.026C80.1932 112.313 21.4456 115.11 16.0761 71.0734C14.1767 55.5109 17.7599 37.854 29.64 26.9695C29.4607 27.1587 32.27 28.8492 33.4993 28.3223C18.2088 50.7214 20.2335 74.5558 30.7501 89.0907ZM50.2627 40.669C34.4081 51.8896 31.5979 72.4939 44.265 88.3089C11.9305 53.0292 66.3798 14.0223 81.3754 36.7765C77.7711 37.0815 75.584 41.0493 75.584 41.0493C67.3794 34.6383 57.003 35.898 50.2627 40.669ZM48.4861 52.5045C41.6169 59.4046 38.5986 70.1945 43.6063 80.9104C30.0028 63.3604 46.3147 46.4042 46.3147 46.4042C61.2119 31.1347 74.951 43.0361 74.951 43.0361C73.4922 49.5635 76.8096 53.5533 76.8096 53.5533C67.8651 43.027 55.5732 45.386 48.4861 52.5045ZM62.9379 48.2356C68.604 48.6244 73.6371 52.7751 73.6371 52.7751C67.2255 51.7187 59.8571 51.8931 52.5028 60.1018C48.5495 64.5132 44.2207 76.7354 51.5722 87.0902C47.9614 84.962 43.4524 78.458 42.8159 71.6457C41.7605 60.3474 51.7658 47.463 62.9379 48.2356ZM71.4394 66.0164C70.7136 67.6363 76.0392 63.9132 71.9333 60.8469C69.2905 58.8691 65.1574 60.5108 63.2753 64.08C47.8849 68.9272 54.6158 88.2616 54.6158 88.2616C41.0625 70.7132 57.6751 48.1205 76.549 55.193C88.5886 59.7038 85.1954 76.4815 73.1008 76.2138C70.3447 76.1498 68.0237 74.6249 66.5565 72.563C64.4978 69.6704 64.1044 64.8743 67.4936 62.7518C69.9207 61.2294 72.915 62.7174 71.4394 66.0164ZM62.838 65.9001C62.8476 65.912 62.8308 65.9707 62.8015 66.0738C62.6032 66.7666 61.83 69.4705 64.6451 73.5515C64.2178 73.6417 53.7836 85.9134 70.1161 101.011C56.4919 92.8077 53.7461 82.511 55.0366 76.025C56.4979 68.6724 62.7999 65.8515 62.838 65.9001ZM91.3045 70.7637C96.375 69.7218 100.376 72.1893 99.9708 72.1379C90.1916 70.8545 83.4416 80.0873 85.6483 88.4146C89.6675 103.577 114.214 103.415 122.396 117.616C120.078 114.662 112.757 110.455 104.563 108.978C93.0491 106.907 78.4469 97.1596 79.7989 84.5704C80.7236 75.9411 86.5374 71.7425 91.3045 70.7637ZM99.7835 79.877C100.537 80.473 98.8177 76.9558 95.7282 76.9788C93.5196 76.9939 88.9117 81.1008 92.1308 85.0099C94.1536 87.4607 97.9068 87.3134 97.9068 87.3134C97.6945 94.0949 111.307 98.6066 111.307 98.6066C119.567 101.645 119.935 112.68 119.935 112.68C111.555 102.817 96.8623 103.313 89.1802 92.1171C84.1949 84.8428 88.0863 73.181 97.8924 73.4099C103.822 73.548 106.145 81.3234 101.162 84.922C99.3084 86.2586 96.2183 86.4841 94.3231 85.1004C90.9255 82.9124 93.5233 79.8121 93.5233 79.8121C97.1354 76.4396 99.3865 79.364 99.7373 79.8202C99.7626 79.853 99.7782 79.8729 99.7835 79.877ZM72.4149 78.0904C72.4149 78.0904 64.1819 93.7884 86.4599 107.623C54.7151 97.2438 62.4331 76.7035 66.0339 75.3183C66.0839 75.2991 66.2409 75.4239 66.5006 75.6302C67.3725 76.3233 69.401 77.9362 72.4149 78.0904ZM74.2611 78.1594C74.2611 78.1594 77.2414 78.2764 80.403 76.4141C80.403 76.4141 68.3952 97.1565 99.3184 109.608C73.4573 105.073 70.143 87.7483 74.2611 78.1594ZM71.3879 128.499C67.572 129.737 63.3371 131.184 58.8619 131.67C50.3173 132.597 41.5145 130.802 37.4236 122.864C35.6133 119.351 36.2779 112.42 41.7127 109.375C44.181 107.992 48.0819 107.811 49.2235 111.537C49.2235 111.537 49.6143 114.375 46.7258 115.28C41.7546 118.712 44.821 123.326 48.8935 125.184C55.6931 128.288 64.9585 125.572 73.8734 122.96C79.1543 121.412 84.3122 119.9 88.7612 119.656C99.6752 119.056 112.029 121.945 123.587 130.09C123.587 130.09 105.526 117.451 71.3879 128.499ZM125.593 129.099L125.594 129.101C125.594 129.101 125.566 129.077 125.515 129.026C124.353 127.883 110.335 114.091 81.0495 117.339C66.593 118.94 56.5544 117.562 54.6249 116.856C48.3213 114.546 50.8268 110.388 54.8415 111.368C60.5639 113.195 68.574 113.244 77.2685 113.297C95.1188 113.405 115.853 113.532 125.593 129.099ZM47.5709 122.598C45.3008 120.809 45.4756 117.938 48.749 117.267C50.3829 116.931 52.1709 117.562 54.3152 118.557C61.2419 121.768 78.2993 119.014 78.2993 119.014C71.6261 121.722 55.0001 128.452 47.5709 122.598ZM120.274 130.836C116.836 129.473 105.317 127.822 97.0309 128.823C89.0553 129.785 83.2318 135.126 90.8016 139.676C89.3671 137.849 90.1395 136.329 91.2673 135.268C95.4488 131.334 101.852 135.57 98.2449 140.74C92.2129 147.376 85.7669 142.808 85.7669 142.808C79.6101 138.151 82.4018 131.54 87.3559 128.455C100.544 120.255 120.23 130.813 120.274 130.836ZM109.515 131.192C103.397 130.481 98.7178 133.579 98.7178 133.579C95.9585 131.219 91.9169 133.152 91.9169 133.152C91.8461 129.464 106.527 128.792 109.515 131.192ZM204.876 144.341L195.571 137.532L186.291 144.341L189.851 133.312L180.546 126.502H192.035L195.571 115.473L199.132 126.502H210.597L201.316 133.312L204.876 144.341ZM198.967 21.8669L211.57 31.194V59.2947H224.293V109.407H224.197L220.921 99.2404L215.248 116.887H204.068V110.629H198.111L195.571 102.765L193.055 110.629H187.857V116.887H177.175L171.502 99.2404L168.25 109.407H167.658V59.2947H180.38V31.194L192.96 21.8669L195.975 2.25175e-07L198.967 21.8669ZM254.272 113.339L248.456 117.607L250.687 124.512L244.849 120.244L239.033 124.512L241.24 117.607L235.449 113.339H242.641L244.849 106.434L247.08 113.339H254.272ZM138.153 113.339H145.345L147.553 106.434L149.808 113.339H157L151.185 117.607L153.392 124.512L147.553 120.244L141.761 124.512L143.969 117.607L138.153 113.339ZM191.014 31.8412H184.605V38.3152H191.014V31.8412ZM207.297 31.8412H200.912V38.3152H207.297V31.8412ZM191.014 42.2234H184.605V48.6971H191.014V42.2234ZM207.297 42.2234H200.912V48.6971H207.297V42.2234ZM191.014 52.6533H184.605V59.1032H191.014V52.6533ZM207.297 52.6533H200.912V59.1032H207.297V52.6533ZM182.422 65.5529H174.019V74.0646H182.422V65.5529ZM200.152 65.5529H191.75V74.0646H200.152V65.5529ZM217.907 65.5529H209.481V74.0646H217.907V65.5529ZM182.422 79.1718H174.019V87.6594H182.422V79.1718ZM200.152 79.1718H191.75V87.6594H200.152V79.1718ZM217.907 79.1718H209.481V87.6594H217.907V79.1718ZM182.422 92.7667H174.019V101.278H182.422V92.7667ZM200.152 92.7667H191.75V101.278H200.152V92.7667ZM217.907 92.7667H209.481V101.278H217.907V92.7667ZM168.655 120.82L171.503 111.972L174.351 120.82H183.561L176.108 126.286L178.956 135.134L171.503 129.643L164.05 135.134L166.898 126.286L159.468 120.82H168.655ZM218.073 120.82L220.922 111.972L223.77 120.82H232.98L225.527 126.286L228.375 135.134L220.922 129.643L213.469 135.134L216.317 126.286L208.864 120.82H218.073Z" fill="white"/>
<path fill-rule="evenodd" clip-rule="evenodd" d="M370.176 8.54922C366.786 12.5591 366.037 20.1581 370.9 30.0943C376.849 42.2572 382.499 62.7071 376.187 73.2019C376.187 73.2019 378.109 51.5236 369.598 33.9528C365.971 25.9611 360.508 13.2703 365.624 5.52627C370.406 -1.71201 379.526 -1.34319 385.266 3.75874C389.795 7.78316 392.57 18.3438 385.894 21.0803C377.064 24.6987 373.6 14.0803 379.315 11.4394C380.146 11.0529 381.266 11.0977 382.559 11.3037C381.806 4.03732 374.268 3.7013 370.176 8.54922ZM380.422 9.60781C377.474 8.68682 370.326 16.475 379.091 22.9949C384.035 34.2541 380.327 59.5242 380.327 59.5242C380.189 50.3625 377.741 41.7549 374.683 34.6898C374.481 34.2232 374.279 33.7584 374.078 33.2962C370.073 24.0907 366.476 15.823 371.124 9.84949C375.457 4.29607 380.619 9.67027 380.422 9.60781ZM341.519 27.4601C341.445 27.4026 339.012 20.4158 341.6 15.005C343.322 11.4084 347.624 8.46782 351.38 8.37948C359.723 8.18481 367.322 18.3217 360.438 24.692C357.893 27.0483 353.842 27.1638 351.197 25.0905C347.683 22.3396 350.976 18.582 350.976 18.582C343.208 24.2055 354.076 28.3164 354.076 28.3164C372.293 50.0006 369.723 89.8199 342.399 99.7656C370.217 76.181 366.326 46.3637 341.519 27.4601ZM306.447 36.3615C306.271 36.6688 305.892 36.7817 305.473 36.9846C301.477 38.9121 300.848 42.5702 303.685 45.5629C300.578 35.8623 315.709 36.2368 313.406 47.6235C311.909 55.017 304.639 57.7841 297.446 55.1417C283.192 49.8634 288.315 33.9364 298.244 27.06C304.214 22.9226 318.867 16.3327 340.569 29.8066C340.569 29.8066 363.208 42.709 359.602 69.3226C357.712 83.2631 345.391 96.1201 333.925 102.605C333.925 102.605 364.584 80.6307 356.185 55.8551C353.02 46.0895 343.91 35.1366 333.039 30.6313C323.71 26.7653 312.142 26.41 306.447 36.3615ZM365.061 26.1873C365.486 27.9615 365.987 30.0555 366.533 31.8698C364.617 29.3216 362.84 27.6403 361.912 26.7624C361.409 26.2861 361.155 26.0462 361.265 26.0327C363.523 24.3465 363.874 22.2035 363.874 22.2035C364.101 22.1777 364.519 23.9218 365.061 26.1873ZM386.354 23.0381C386.354 23.0381 388.717 31.1649 388.451 43.2136C388.194 54.889 385.452 70.3316 376.591 80.3828C382.841 63.66 386.171 40.8118 381.045 23.8222C383.761 24.5409 386.013 23.2338 386.321 23.0552C386.344 23.0418 386.357 23.0354 386.357 23.0354C386.357 23.0354 386.356 23.0364 386.354 23.0381ZM356.356 28.3391C357.586 28.8664 360.397 27.1748 360.218 26.9855C372.105 37.8766 375.69 55.544 373.79 71.1157C368.417 115.179 309.635 112.38 310.783 111.092C311.966 109.769 345.765 107.584 359.107 89.1437C369.63 74.6003 371.656 50.7516 356.356 28.3391ZM314.247 41.0737C314.247 41.0737 312.058 37.1035 308.452 36.7984C323.456 14.0307 377.938 53.0608 345.584 88.3615C358.259 72.5371 355.447 51.9206 339.583 40.6932C332.839 35.9194 322.456 34.6589 314.247 41.0737ZM313.02 53.5852C313.02 53.5852 316.34 49.593 314.88 43.0618C314.88 43.0618 328.627 31.1532 343.533 46.4318C343.533 46.4318 359.855 63.3982 346.243 80.9586C351.254 70.2364 348.234 59.44 341.361 52.5358C334.269 45.413 321.97 43.0526 313.02 53.5852ZM326.9 48.2643C338.079 47.4913 348.09 60.3834 347.034 71.6883C346.397 78.5048 341.886 85.0126 338.273 87.1421C345.629 76.7811 341.297 64.5517 337.342 60.1376C329.983 51.924 322.61 51.7495 316.195 52.8065C316.195 52.8065 321.231 48.6534 326.9 48.2643ZM318.394 66.0557C316.917 62.7548 319.913 61.2659 322.342 62.7892C325.733 64.9129 325.339 69.712 323.279 72.6062C321.811 74.6694 319.489 76.1952 316.731 76.2592C304.629 76.5271 301.234 59.7394 313.281 55.2259C332.166 48.1492 348.789 70.7554 335.227 88.3142C335.227 88.3142 341.962 68.9683 326.563 64.1181C324.679 60.5468 320.544 58.9042 317.899 60.8832C313.791 63.9512 319.12 67.6765 318.394 66.0557ZM334.806 76.0703C336.097 82.5601 333.35 92.863 319.718 101.072C336.06 85.9645 325.62 73.6856 325.192 73.5953C328.009 69.5119 327.235 66.8064 327.037 66.1132C327.007 66.01 326.99 65.9513 327 65.9393C327.038 65.8907 333.344 68.7133 334.806 76.0703ZM298.517 70.8059C303.287 71.7852 309.104 75.9863 310.029 84.6208C311.382 97.2175 296.771 106.97 285.25 109.043C277.051 110.521 269.726 114.73 267.406 117.686C275.594 103.476 300.155 103.638 304.176 88.4672C306.384 80.1351 299.63 70.8967 289.845 72.1809C289.44 72.2323 293.443 69.7634 298.517 70.8059ZM290.033 79.9246C290.038 79.9205 290.054 79.9006 290.079 79.8678C290.43 79.4113 292.682 76.4852 296.297 79.8596C296.297 79.8596 298.896 82.9618 295.496 85.1512C293.6 86.5357 290.508 86.3101 288.653 84.9726C283.667 81.3719 285.992 73.5919 291.925 73.4537C301.737 73.2246 305.631 84.8934 300.642 92.1721C292.956 103.374 278.254 102.878 269.869 112.747C269.869 112.747 270.238 101.706 278.502 98.6654C278.502 98.6654 292.123 94.151 291.91 87.3655C291.91 87.3655 295.666 87.5128 297.69 85.0606C300.911 81.1492 296.3 77.0399 294.09 77.0247C290.999 77.0017 289.278 80.5209 290.033 79.9246ZM323.335 75.6752C323.595 75.4689 323.752 75.3439 323.802 75.3632C327.405 76.7492 335.128 97.3017 303.364 107.687C325.656 93.8443 317.418 78.1369 317.418 78.1369C320.433 77.9826 322.463 76.3687 323.335 75.6752ZM290.498 109.673C321.44 97.2143 309.425 76.4596 309.425 76.4596C312.588 78.323 315.57 78.206 315.57 78.206C319.691 87.8005 316.375 105.135 290.498 109.673ZM318.445 128.576C284.287 117.521 266.215 130.168 266.215 130.168C277.78 122.017 290.141 119.127 301.061 119.727C305.513 119.972 310.674 121.484 315.958 123.033C324.878 125.647 334.149 128.364 340.953 125.259C345.028 123.399 348.096 118.783 343.122 115.348C340.232 114.443 340.623 111.604 340.623 111.604C341.765 107.876 345.668 108.057 348.138 109.44C353.576 112.487 354.241 119.422 352.43 122.937C348.336 130.88 339.528 132.676 330.979 131.749C326.501 131.262 322.263 129.814 318.445 128.576ZM264.208 129.176C273.954 113.599 294.7 113.473 312.561 113.364C321.261 113.311 329.276 113.263 335.001 111.434C339.019 110.454 341.525 114.614 335.218 116.925C333.288 117.632 323.243 119.011 308.778 117.409C279.475 114.159 265.449 127.959 264.286 129.103C264.235 129.154 264.207 129.178 264.207 129.178L264.208 129.176ZM311.53 119.084C311.53 119.084 328.597 121.84 335.528 118.628C337.674 117.632 339.463 117.001 341.098 117.337C344.373 118.008 344.548 120.881 342.276 122.671C334.843 128.528 318.207 121.794 311.53 119.084ZM302.468 128.532C307.425 131.618 310.218 138.233 304.058 142.893C304.058 142.893 297.608 147.464 291.572 140.824C287.963 135.651 294.37 131.412 298.554 135.349C299.682 136.41 300.455 137.931 299.02 139.759C306.594 135.207 300.767 129.863 292.787 128.9C284.496 127.898 272.97 129.55 269.53 130.914C269.574 130.891 289.271 120.326 302.468 128.532ZM297.904 133.231C297.904 133.231 293.86 131.297 291.099 133.658C291.099 133.658 286.417 130.559 280.295 131.27C283.285 128.869 297.975 129.541 297.904 133.231Z" fill="white"/>
</svg>
