<svg width="141" height="108" viewBox="0 0 141 108" fill="none" xmlns="http://www.w3.org/2000/svg">
<path d="M19.1474 79.143H26.0744V79.1169C25.4581 78.6733 24.7925 77.4731 24.7925 75.3857V65.2621C24.7925 63.2009 25.4828 61.9745 26.0744 61.5571V61.5049H19.1474V61.5571C19.7636 61.9745 20.4292 63.1748 20.4292 65.2621V69.3585H13.798V65.2621C13.798 63.2009 14.4636 61.9745 15.0552 61.5571V61.5049H8.12817V61.5571C8.76911 61.9745 9.41004 63.1748 9.41004 65.2621V70.4805C7.33932 71.759 6.32861 73.8985 6.32861 76.1424C6.32861 76.7164 6.37792 77.3165 6.52583 77.8906C7.04351 80.0562 8.54724 81.413 9.5826 81.987C10.2975 82.3783 10.9877 82.5349 11.7273 82.5349C12.4422 82.5349 13.1817 82.3783 13.9459 82.0652C15.8194 81.3086 16.9287 79.3517 16.9287 77.2383C16.9287 76.8469 16.8794 76.4555 16.8055 76.0641C16.3864 74.029 14.858 72.5156 12.5408 72.5156H12.3682C10.7412 72.5678 9.60725 73.9768 9.60725 75.3596C9.60725 75.6988 9.68121 76.0641 9.82912 76.3772C10.1003 76.8991 10.5687 77.3687 11.1603 77.4209H11.2589C12.245 77.4209 12.6394 76.325 13.6994 76.325C14.7841 76.325 15.351 77.1339 15.351 78.0732C15.351 79.4561 14.1678 81.2042 11.8259 81.2042C9.5333 81.2042 8.22678 79.3778 7.85701 77.2122C7.83236 77.0295 7.83235 76.8469 7.83235 76.6642C7.83235 74.1855 9.08958 72.333 10.9877 71.4198C11.8012 71.0284 14.1924 70.924 15.2031 70.924H20.4292V75.3857C20.4292 77.447 19.739 78.6733 19.1474 79.1169L19.1474 79.143Z" fill="white"/>
<path d="M38.7451 68.21C37.3646 66.8793 35.6144 66.4097 33.8148 66.4097C31.2018 66.4097 28.638 67.5838 27.578 70.2713C27.2822 71.0279 27.1343 71.8889 27.1343 72.8804C27.1343 74.6808 27.7259 76.4028 29.0324 77.603C30.339 78.8294 31.9906 79.299 33.7162 79.299C35.5404 79.299 37.3646 78.7511 38.7451 77.4204C39.8791 76.1941 40.52 74.4981 40.52 72.7761C40.52 71.054 39.953 69.4102 38.7451 68.21ZM35.6144 76.5333C35.2693 77.5248 34.6776 78.0205 33.8395 78.0205C32.4343 78.0205 32.0153 76.8203 31.7688 75.6462C31.5469 74.6547 31.5469 73.7154 31.5469 72.6978C31.5469 72.0716 31.5715 71.4454 31.6208 70.8453C31.7688 69.4885 32.2371 67.6882 33.8395 67.6882C35.9595 67.6882 36.1074 71.1584 36.1074 72.75C36.1074 74.4199 35.9348 75.6723 35.6144 76.5333Z" fill="white"/>
<path d="M50.2328 77.0033C49.8137 77.0815 49.1235 77.1859 48.5565 77.1859C48.236 77.1859 47.9649 77.1598 47.743 77.0555C47.1267 76.7945 47.0035 76.0379 46.9542 75.4117V68.1321H50.0849V66.5665H46.9542V60.4089L46.757 60.1479L45.3272 60.2784C44.4397 64.8184 43.3551 66.6448 40.1011 66.9318V68.1321H42.9113V75.5943C42.9113 76.7684 43.2072 77.6816 43.7988 78.3079C44.3904 78.9341 45.3025 79.2472 46.5104 79.2472C47.8909 79.2472 48.9756 78.908 50.2328 78.3079V77.0033Z" fill="white"/>
<path d="M61.1776 78.3342C63.9879 76.847 66.2065 73.3246 66.2065 69.1238C65.7874 63.3314 61.7446 60.5918 58.0469 60.5918C56.4938 60.5918 55.7543 61.7398 55.7543 62.7574C55.7543 63.7228 56.3952 64.636 57.6031 64.636C57.899 64.636 58.2441 64.5839 58.6139 64.4534C59.1315 64.2707 59.6492 64.1664 60.1422 64.1664C62.9279 64.1664 64.9739 67.0365 64.9739 70.1414C64.9739 70.9242 64.826 71.7069 64.5549 72.4897C63.8646 74.3944 61.5967 76.4556 59.7725 77.1079C59.452 77.2384 59.0822 77.2906 58.7125 77.2906C57.7264 77.2906 56.691 76.8731 56.1241 76.0903C55.5571 75.3076 55.2613 74.1335 55.2366 72.594H62.8785V71.6808C62.8785 70.9502 62.7799 70.2979 62.5581 69.6457C62.3609 69.0195 62.0404 68.4454 61.5967 68.0019C61.3748 67.741 61.1283 67.5322 60.8571 67.3496C60.5613 67.1408 60.2408 66.9843 59.8711 66.8538C59.526 66.6973 59.1315 66.619 58.6878 66.5407C58.2441 66.4625 57.751 66.4364 57.2087 66.4364C56.2227 66.4364 55.3352 66.5929 54.5464 66.9582C53.7329 67.3235 53.0673 67.7931 52.5249 68.3932C52.0073 68.9673 51.6128 69.6457 51.317 70.4023C51.0459 71.159 50.8979 71.9678 50.8979 72.8028C50.8979 73.7421 51.0212 74.6031 51.2924 75.3858C51.5635 76.1686 51.958 76.847 52.5003 77.421C53.0426 77.995 53.7082 78.4647 54.5464 78.8039C55.3845 79.1431 56.3459 79.3257 57.5045 79.3257C58.1701 79.3257 58.7618 79.2214 59.3041 79.0648C59.8464 78.9082 60.6846 78.6473 61.1776 78.3342ZM55.2366 71.2894C55.2859 70.037 55.4585 69.1238 55.7789 68.5498C56.0994 67.9758 56.5185 67.7149 57.0362 67.7149C57.6032 67.7149 58.0222 68.0541 58.2687 68.7324C58.3673 69.0456 58.4413 69.4369 58.4906 69.8805C58.5399 70.3501 58.5646 70.7937 58.5646 71.2373L55.2366 71.2894Z" fill="white"/>
<path d="M68.2287 75.4117C68.2287 77.4468 67.5384 78.6731 66.9468 79.1167V79.1689H73.4055V79.1167C72.8385 78.6731 72.1975 77.4729 72.1975 75.4117V60.3828L71.9757 60.1479L66.084 60.435V61.6091C67.1686 61.7135 68.204 62.0527 68.204 63.3833L68.2287 75.4117Z" fill="white"/>
<path d="M95.1478 63.7486C94.0878 66.6709 93.0031 69.5931 91.9184 72.5154L88.0482 61.5308H80.3569V62.7832C82.0579 62.9136 82.9946 63.3572 82.9946 65.3402V75.4116C82.9946 77.4729 82.3044 78.6992 81.7128 79.1167V79.1688H85.9282V79.1167C85.3119 78.6992 84.6709 77.499 84.6463 75.4116V64.2182L89.6259 78.6209H91.2775L96.5529 64.14V75.4116C96.5529 77.4729 95.8627 78.6992 95.271 79.1167V79.1688H102.198V79.1167C101.557 78.6992 100.892 77.499 100.892 75.4116V65.001C100.892 63.1224 101.606 61.9743 102.173 61.583V61.5308H95.6408C95.6408 62.4179 95.1478 63.7486 95.1478 63.7486Z" fill="white"/>
<path d="M115.559 79.1686V79.1164C114.992 78.6728 114.351 77.4726 114.351 75.4113V73.8198C114.376 72.75 114.4 71.6541 114.4 70.5583C114.4 69.1754 114.006 67.8969 112.798 67.1663C111.886 66.6184 110.604 66.4097 109.371 66.4097C108.632 66.4097 107.473 66.4879 106.857 66.6184C105.649 66.8793 104.145 67.5055 103.529 68.7579C103.43 68.9667 103.381 69.2276 103.381 69.4624C103.381 69.9582 103.578 70.4539 103.923 70.7931C104.269 71.1584 104.885 71.3149 105.501 71.3149C105.871 71.3149 106.216 71.2628 106.512 71.1584C107.276 70.8975 107.991 70.2452 107.991 69.5407C107.991 69.071 107.892 68.497 107.695 68.0535C107.646 67.923 108.484 67.636 108.829 67.636C109.79 67.636 110.382 68.7057 110.382 70.0625V71.1062C109.026 71.6019 107.202 72.1499 105.896 72.6456C104.293 73.2457 103.258 74.2372 103.258 76.168C103.258 78.0727 104.885 79.299 106.635 79.299C108.237 79.299 109.347 78.8816 110.505 77.7074C110.703 78.1771 110.998 78.5685 111.417 78.8555C111.615 78.9859 111.886 79.1164 112.28 79.1686L115.559 79.1686ZM110.333 76.2985C110.136 76.5333 109.938 76.742 109.692 76.8986C109.396 77.0812 109.1 77.1595 108.829 77.1595C108.089 77.1595 107.498 76.5333 107.498 75.5157C107.498 74.759 107.769 74.0285 108.336 73.5588C108.878 73.1153 109.766 72.75 110.382 72.5152L110.333 76.2985Z" fill="white"/>
<path d="M121.648 69.9324C122.067 69.4106 122.708 68.8887 123.399 68.7322C123.325 69.0453 123.275 69.3323 123.275 69.5932C123.275 70.7934 124.089 71.5501 125.395 71.5501C126.677 71.5501 127.491 70.376 127.491 69.1235C127.491 67.558 126.505 66.4883 125.001 66.4883C123.62 66.4883 122.511 67.3232 121.648 68.393V66.8796L121.402 66.6187L115.781 66.9318V68.106C116.644 68.1842 117.655 68.5495 117.655 69.6454V75.4117C117.655 77.4468 116.965 78.6732 116.373 79.1167V79.1689H122.832V79.1167C122.265 78.6732 121.648 77.4729 121.648 75.4117V69.9324Z" fill="white"/>
<path d="M12.9753 107.821H20.8894V107.761C20.1853 107.254 19.4249 105.883 19.4249 103.528C19.4249 102.336 19.4249 99.4145 19.8474 98.55C21.0303 96.2547 22.6919 93.8699 24.0156 91.7534C24.7479 90.561 25.6773 89.7561 27.001 89.5475V87.6396H19.1996V89.5475C19.8192 89.6667 20.3825 89.7561 20.9458 89.9946C21.6499 90.3225 21.8189 90.7995 21.8189 91.2168C21.8189 91.4255 21.7625 91.6342 21.7062 91.7534C20.8331 93.8401 19.5376 95.7181 18.6082 97.2384C16.8338 94.0785 15.144 90.8591 13.4541 87.6396H6.32861L6.38494 89.4282H6.58209C7.87764 89.4282 8.97604 89.9946 9.82096 91.3957C11.2292 93.7506 12.5247 96.195 13.8484 98.6394L14.1301 99.1462C14.3272 99.4443 14.4117 99.7722 14.4117 100.13C14.4399 100.696 14.4399 101.263 14.4399 101.829V103.528C14.4399 105.853 13.6513 107.254 12.9753 107.761L12.9753 107.821Z" fill="white"/>
<path d="M50.6304 87.6699H32.4082V93.6021H33.7319C34.1262 92.3202 34.605 91.098 35.3936 90.2932C36.0695 89.6076 36.6328 89.3095 37.1116 89.3095C38.4635 89.3095 39.0268 91.6644 39.0268 93.5126V103.529C39.0268 105.854 38.2382 107.255 37.5622 107.762V107.821H45.4763V107.762C44.7722 107.255 44.0118 105.884 44.0118 103.529V93.5126C44.0118 91.724 44.5188 89.3393 45.8988 89.3393C46.3494 89.3393 46.8845 89.5777 47.5041 90.1739C48.3772 90.9788 48.9123 92.2606 49.3066 93.6021H50.6304V87.6699Z" fill="white"/>
<path d="M57.1927 93.7807L56.9392 93.5124L50.377 93.8702V95.1818C51.3627 95.3308 52.6582 95.6587 52.6582 96.9704V103.528C52.6582 105.854 51.8696 107.255 51.1937 107.761V107.821H58.5727V107.761C57.9249 107.255 57.1927 105.883 57.1927 103.528V93.7807ZM57.2771 88.7727C57.2771 87.1928 56.0098 86.0898 54.5734 86.0898C53.137 86.0898 51.8697 87.1928 51.8697 88.7727C51.8697 90.3228 53.1934 91.4556 54.5734 91.4556C55.9816 91.4556 57.2771 90.3228 57.2771 88.7727Z" fill="white"/>
<path d="M71.1341 106.867C74.3448 105.168 76.8795 101.143 76.8795 96.344C76.4007 89.7262 71.7818 86.5962 67.5572 86.5962C65.7829 86.5962 64.938 87.9078 64.938 89.0704C64.938 90.1734 65.6702 91.2167 67.0503 91.2167C67.3882 91.2167 67.7825 91.1571 68.205 91.008C68.7964 90.7994 69.3879 90.6801 69.9512 90.6801C73.1337 90.6801 75.4713 93.9592 75.4713 97.5065C75.4713 98.4008 75.3023 99.2951 74.9925 100.189C74.2039 102.366 71.6128 104.72 69.5287 105.466C69.1626 105.615 68.7401 105.674 68.3177 105.674C67.1911 105.674 66.0082 105.197 65.3604 104.303C64.7126 103.409 64.3747 102.067 64.3465 100.309H73.0774V99.2653C73.0774 98.4306 72.9647 97.6854 72.7112 96.9402C72.4859 96.2247 72.1198 95.5689 71.6129 95.0622C71.3594 94.7641 71.0777 94.5256 70.7679 94.3169C70.43 94.0784 70.0638 93.8996 69.6414 93.7505C69.2471 93.5717 68.7964 93.4822 68.2895 93.3928C67.7825 93.3034 67.2193 93.2736 66.5996 93.2736C65.4731 93.2736 64.4592 93.4524 63.5579 93.8698C62.6285 94.2871 61.8681 94.8237 61.2485 95.5093C60.657 96.1651 60.2064 96.9402 59.8684 97.8046C59.5586 98.6691 59.3896 99.5932 59.3896 100.547C59.3896 101.62 59.5305 102.604 59.8403 103.498C60.1501 104.393 60.6007 105.168 61.2203 105.823C61.8399 106.479 62.6003 107.016 63.5579 107.403C64.5155 107.791 65.6139 108 66.9376 108C67.698 108 68.374 107.88 68.9936 107.701C69.6132 107.523 70.5708 107.225 71.1341 106.867ZM64.3465 98.8182C64.4029 97.3873 64.6 96.344 64.9661 95.6882C65.3323 95.0323 65.811 94.7342 66.4025 94.7342C67.0503 94.7342 67.5291 95.1218 67.8107 95.8968C67.9234 96.2545 68.0078 96.7017 68.0642 97.2084C68.1205 97.745 68.1487 98.2518 68.1487 98.7586L64.3465 98.8182Z" fill="white"/>
<path d="M83.7519 97.2684C84.2307 96.6722 84.9629 96.076 85.7515 95.8971C85.667 96.2548 85.6107 96.5827 85.6107 96.8808C85.6107 98.2521 86.5401 99.1166 88.0328 99.1166C89.4973 99.1166 90.4267 97.7751 90.4267 96.3443C90.4267 94.5557 89.3002 93.3335 87.5822 93.3335C86.005 93.3335 84.7376 94.2874 83.7519 95.5096V93.7806L83.4702 93.4825L77.0488 93.8403V95.1817C78.0346 95.2711 79.1893 95.6884 79.1893 96.9405V103.528C79.1893 105.854 78.4007 107.255 77.7248 107.761V107.821H85.1037V107.761C84.456 107.255 83.7519 105.883 83.7519 103.528V97.2684Z" fill="white"/>
<path d="M97.186 97.2684C97.6648 96.6722 98.397 96.076 99.1856 95.8971C99.1011 96.2548 99.0448 96.5827 99.0448 96.8808C99.0448 98.2521 99.9742 99.1166 101.467 99.1166C102.931 99.1166 103.861 97.7751 103.861 96.3443C103.861 94.5557 102.734 93.3335 101.016 93.3335C99.4391 93.3335 98.1717 94.2874 97.186 95.5096V93.7806L96.9043 93.4825L90.4829 93.8403V95.1817C91.4687 95.2711 92.6234 95.6884 92.6234 96.9405V103.528C92.6234 105.854 91.8348 107.255 91.1589 107.761V107.821H98.5378V107.761C97.8901 107.255 97.186 105.883 97.186 103.528V97.2684Z" fill="white"/>
<path d="M116.394 108C118.252 108 121.125 107.046 122.702 105.943C125.857 103.797 127.49 100.399 127.49 97.2686C127.49 96.5532 127.406 95.8675 127.209 95.1819C126.786 93.6914 125.716 93.0654 124.702 93.0654C123.491 93.0654 122.308 93.9597 122.308 95.3012C122.308 95.8079 122.477 96.3743 122.843 96.9705C123.463 97.9542 123.744 98.9976 123.744 99.9813C123.744 101.74 122.871 103.38 121.52 104.572C120.872 105.138 119.52 105.943 118.506 105.943C117.802 105.943 117.295 105.556 117.295 104.453C117.295 102.306 117.408 100.16 117.408 98.0138C117.408 96.4041 116.929 94.9434 115.549 94.1088C114.478 93.4828 113.042 93.2443 111.634 93.2443C110.789 93.2443 109.972 93.3337 109.268 93.4828C107.888 93.7809 106.17 94.4963 105.466 95.9272C105.353 96.1955 105.297 96.4935 105.297 96.7618C105.297 97.3282 105.522 97.8648 105.888 98.2523C106.311 98.6697 107.071 98.8485 107.775 98.8485C108.17 98.8485 108.564 98.8187 108.874 98.6995C109.747 98.4014 110.057 97.6561 110.057 96.8513C110.057 96.5234 110 96.1656 109.916 95.8377C109.86 95.5993 109.747 95.3608 109.691 95.1521C110.198 94.7944 110.62 94.6454 111.014 94.6454C112.113 94.6454 112.789 95.8675 112.789 97.4177V98.6398C111.24 99.2062 109.24 99.8024 107.719 100.369C105.888 101.084 104.706 102.187 104.706 104.393C104.706 106.599 106.508 108 108.508 108C110.338 108 111.606 107.493 112.958 106.182C113.155 106.688 113.493 107.136 113.972 107.464C114.478 107.821 115.295 108 116.394 108ZM112.732 104.542C112.507 104.84 112.282 105.049 112 105.228C111.662 105.436 111.324 105.526 111.014 105.526C110.169 105.526 109.493 104.81 109.493 103.648C109.493 102.783 109.803 101.979 110.451 101.412C111.042 100.965 111.972 100.577 112.676 100.279C112.704 100.25 112.76 100.22 112.789 100.22L112.732 104.542Z" fill="white"/>
<path fill-rule="evenodd" clip-rule="evenodd" d="M7.56968 3.21481C6.101 1.39182 3.39592 1.51818 3.12577 4.25058C3.58984 4.1731 3.99182 4.15626 4.28988 4.3016C6.341 5.29466 5.09764 9.28755 1.92881 7.92692C-0.466888 6.89791 0.528967 2.92674 2.15412 1.41341C4.2141 -0.505083 7.48707 -0.643774 9.20314 2.07807C11.0391 4.9901 9.07893 9.76225 7.77695 12.7674C4.72279 19.3746 5.4124 27.5264 5.4124 27.5264C3.1474 23.58 5.17488 15.8901 7.30973 11.3165C9.05506 7.58011 8.78636 4.72267 7.56968 3.21481ZM3.8925 3.61286C3.82188 3.63636 5.67437 1.61547 7.22947 3.70374C8.89764 5.94997 7.60679 9.05892 6.16952 12.5205C6.09735 12.6943 6.02481 12.8691 5.95226 13.0446C4.85496 15.7013 3.97625 18.938 3.92693 22.3831C3.92693 22.3831 2.5959 12.8807 4.37026 8.64686C7.51577 6.19517 4.95046 3.26654 3.8925 3.61286ZM17.8539 10.3259C8.95126 17.4343 7.555 28.6466 17.538 37.5153C7.73211 33.7753 6.80979 18.8019 13.3475 10.6479C13.3475 10.6479 17.2479 9.1021 14.4602 6.98748C14.4602 6.98748 15.6419 8.40043 14.3806 9.4349C13.4314 10.2145 11.9776 10.1711 11.0644 9.28505C8.59389 6.88961 11.3211 3.07776 14.3151 3.15097C15.663 3.18419 17.207 4.28996 17.8247 5.64241C18.7538 7.67706 17.8804 10.3043 17.8539 10.3259ZM30.4404 13.6731C28.3968 9.93107 24.245 10.0647 20.8973 11.5184C16.9958 13.2126 13.7265 17.3312 12.5909 21.0034C9.57642 30.3199 20.5793 38.5828 20.5793 38.5828C16.4645 36.1444 12.0429 31.3098 11.3646 26.0677C10.0703 16.0601 18.1949 11.2083 18.1949 11.2083C25.9834 6.14167 31.2419 8.61969 33.3843 10.1755C36.9477 12.7612 38.786 18.7503 33.6706 20.7351C31.0893 21.7288 28.4803 20.6883 27.9429 17.9081C27.1167 13.6263 32.5466 13.4855 31.4316 17.1332C32.45 16.0079 32.224 14.6323 30.7898 13.9075C30.6396 13.8312 30.5035 13.7887 30.4404 13.6731ZM9.83132 8.3493C9.83132 8.3493 9.95721 9.15514 10.7677 9.78918C10.807 9.79427 10.716 9.88446 10.5354 10.0636C10.2024 10.3937 9.56483 11.0259 8.87695 11.9841C9.07302 11.3019 9.25291 10.5145 9.40533 9.84734C9.59996 8.99541 9.74978 8.33958 9.83132 8.3493ZM1.76272 8.66208C1.76272 8.66208 1.76723 8.66445 1.77552 8.66949C1.88601 8.73667 2.69442 9.22819 3.6691 8.95795C1.8295 15.3466 3.02466 23.9383 5.26758 30.2266C2.08743 26.4471 1.10345 20.6401 1.01131 16.2498C0.915804 11.7191 1.7637 8.6631 1.7637 8.6631C1.76299 8.66248 1.76272 8.66208 1.76272 8.66208ZM11.1446 10.1463L11.1434 10.1475L11.1446 10.1463ZM11.542 33.5211C16.3302 40.4553 28.4599 41.277 28.8844 41.7745C29.2965 42.2587 8.20089 43.3112 6.27274 26.7419C5.5907 20.8864 6.87737 14.2429 11.1434 10.1475C11.079 10.2187 12.0878 10.8547 12.5292 10.6565C7.03857 19.0843 7.76563 28.0522 11.542 33.5211ZM18.5488 15.302C12.8555 19.5239 11.8465 27.2764 16.3951 33.2269C4.78411 19.9527 24.3363 5.27602 29.721 13.8375C28.4267 13.9522 27.6414 15.4451 27.6414 15.4451C24.6952 13.0329 20.9691 13.5069 18.5488 15.302ZM17.9108 19.7553C15.4442 22.3514 14.3603 26.4113 16.1585 30.4432C11.2737 23.8398 17.1311 17.4599 17.1311 17.4599C22.4805 11.7147 27.414 16.1927 27.414 16.1927C26.8902 18.6486 28.0815 20.1499 28.0815 20.1499C24.8696 16.1892 20.4557 17.0768 17.9108 19.7553ZM23.1003 18.149C25.1349 18.2953 26.9422 19.8571 26.9422 19.8571C24.6399 19.4596 21.994 19.5252 19.3532 22.6138C17.9336 24.2736 16.3792 28.8723 19.019 32.7684C17.7224 31.9676 16.1033 29.5205 15.8747 26.9573C15.4957 22.7062 19.0885 17.8584 23.1003 18.149ZM26.1531 24.8392C25.8925 25.4487 27.8048 24.0478 26.3304 22.8941C25.3814 22.15 23.8973 22.7677 23.2215 24.1106C17.6949 25.9344 20.1119 33.2091 20.1119 33.2091C15.2451 26.6064 21.2105 18.1057 27.9879 20.7668C32.3112 22.464 31.0927 28.7768 26.7497 28.6761C25.76 28.652 24.9265 28.0782 24.3997 27.3024C23.6604 26.2141 23.5192 24.4095 24.7362 23.6109C25.6077 23.038 26.683 23.5979 26.1531 24.8392ZM23.0644 24.7954C23.0679 24.7999 23.0618 24.822 23.0513 24.8608C22.9801 25.1215 22.7025 26.1388 23.7133 27.6743C23.5599 27.7083 19.8131 32.3256 25.6779 38.0063C20.7856 34.9197 19.7996 31.0454 20.263 28.605C20.7878 25.8386 23.0507 24.7771 23.0644 24.7954ZM33.2864 26.6254C35.1072 26.2334 36.5438 27.1618 36.3984 27.1425C32.8868 26.6596 30.4629 30.1335 31.2553 33.2667C32.6986 38.9715 41.513 38.9106 44.4511 44.2538C43.6186 43.1424 40.9898 41.5595 38.0474 41.004C33.9129 40.2245 28.6694 36.5571 29.1549 31.8203C29.4869 28.5734 31.5746 26.9937 33.2864 26.6254ZM36.3311 30.0544C36.6019 30.2786 35.9843 28.9552 34.8749 28.9639C34.0818 28.9696 32.4272 30.5148 33.5831 31.9857C34.3095 32.9078 35.6572 32.8524 35.6572 32.8524C35.581 35.404 40.4691 37.1015 40.4691 37.1015C43.4351 38.2448 43.5673 42.3968 43.5673 42.3968C40.558 38.6857 35.2822 38.8722 32.5236 34.6598C30.7334 31.9228 32.1308 27.5349 35.6521 27.6211C37.7812 27.673 38.6155 30.5986 36.8263 31.9526C36.1605 32.4555 35.0509 32.5403 34.3704 32.0197C33.1503 31.1964 34.0832 30.0299 34.0832 30.0299C35.3802 28.761 36.1886 29.8613 36.3146 30.033C36.3236 30.0453 36.3292 30.0528 36.3311 30.0544ZM26.5034 29.3821C26.5034 29.3821 23.547 35.2886 31.5468 40.494C20.1476 36.5888 22.919 28.8603 24.212 28.3391C24.23 28.3319 24.2864 28.3789 24.3796 28.4565C24.6927 28.7172 25.4211 29.3241 26.5034 29.3821ZM27.1663 29.4081C27.1663 29.4081 28.2365 29.4521 29.3718 28.7514C29.3718 28.7514 25.0599 36.5559 36.1641 41.2407C26.8777 39.5345 25.6876 33.016 27.1663 29.4081ZM26.1346 48.3488C24.7643 48.8146 23.2437 49.3589 21.6367 49.542C18.5684 49.8906 15.4074 49.2152 13.9384 46.2286C13.2883 44.9069 13.527 42.2989 15.4786 41.1533C16.3649 40.633 17.7657 40.5649 18.1756 41.9667C18.1756 41.9667 18.3159 43.0345 17.2787 43.3749C15.4936 44.6665 16.5947 46.4024 18.0571 47.1016C20.4988 48.2693 23.8259 47.2475 27.0271 46.2645C28.9234 45.6822 30.7756 45.1134 32.3732 45.0215C36.2922 44.7959 40.7283 45.8827 44.8786 48.9476C44.8786 48.9476 38.393 44.192 26.1346 48.3488ZM45.599 48.5745L45.5993 48.5754C45.5993 48.5754 45.5893 48.5662 45.5709 48.5472C45.1536 48.117 40.1201 42.9277 29.604 44.1497C24.4128 44.7523 20.808 44.2335 20.1152 43.9679C17.8516 43.0987 18.7513 41.5345 20.193 41.9031C22.2478 42.5905 25.1242 42.6089 28.2463 42.6287C34.6561 42.6697 42.1015 42.7171 45.599 48.5745ZM17.5822 46.1284C16.767 45.4552 16.8298 44.3751 18.0052 44.1227C18.5919 43.9964 19.234 44.2336 20.004 44.6081C22.4913 45.8162 28.6164 44.7798 28.6164 44.7798C26.2201 45.7988 20.2499 48.3311 17.5822 46.1284ZM43.6889 49.2282C42.4544 48.7151 38.3181 48.0941 35.3427 48.4706C32.4788 48.8328 30.3876 50.8423 33.1058 52.5541C32.5907 51.8667 32.8681 51.2948 33.2731 50.8958C34.7746 49.4155 37.074 51.0093 35.7786 52.9544C33.6126 55.4516 31.2979 53.7327 31.2979 53.7327C29.0871 51.9804 30.0896 49.4928 31.8685 48.3323C36.6044 45.2468 43.6733 49.2194 43.6889 49.2282ZM39.8257 49.362C37.6285 49.0944 35.9484 50.26 35.9484 50.26C34.9576 49.3722 33.5063 50.0995 33.5063 50.0995C33.4809 48.7117 38.7525 48.459 39.8257 49.362ZM74.0688 54.3094L70.7275 51.7473L67.3948 54.3094L68.6733 50.1595L65.3321 47.5974H69.4576L70.7275 43.4475L72.0061 47.5974H76.123L72.7902 50.1595L74.0688 54.3094ZM71.9467 8.2276L76.4725 11.737V22.3101H81.0412V41.1651H81.0065L79.8303 37.34L77.7932 43.9798H73.7787V41.6251H71.6393L70.7273 38.6662L69.8238 41.6251H67.9572V43.9798H64.1216L62.0845 37.34L60.9167 41.1651H60.704V22.3101H65.2725V11.737L69.7899 8.2276L70.8724 8.47238e-08L71.9467 8.2276ZM91.8061 42.6446L89.7178 44.2505L90.519 46.8486L88.4223 45.2428L86.334 46.8486L87.1267 44.2505L85.047 42.6446H87.6296L88.4223 40.0465L89.2235 42.6446H91.8061ZM50.1093 42.6446H52.6919L53.4846 40.0465L54.2943 42.6446H56.8769L54.7887 44.2505L55.5813 46.8486L53.4846 45.2428L51.4049 46.8486L52.1976 44.2505L50.1093 42.6446ZM69.091 11.9805H66.7896V14.4164H69.091V11.9805ZM74.9381 11.9805H72.6452V14.4164H74.9381V11.9805ZM69.091 15.8869H66.7896V18.3227H69.091V15.8869ZM74.9381 15.8869H72.6452V18.3227H74.9381V15.8869ZM69.091 19.8112H66.7896V22.2381H69.091V19.8112ZM74.9381 19.8112H72.6452V22.2381H74.9381V19.8112ZM66.0055 24.6648H62.9882V27.8674H66.0055V24.6648ZM72.3725 24.6648H69.3554V27.8674H72.3725V24.6648ZM78.7481 24.6648H75.7222V27.8674H78.7481V24.6648ZM66.0055 29.789H62.9882V32.9826H66.0055V29.789ZM72.3725 29.789H69.3554V32.9826H72.3725V29.789ZM78.7481 29.789H75.7222V32.9826H78.7481V29.789ZM66.0055 34.9042H62.9882V38.1068H66.0055V34.9042ZM72.3725 34.9042H69.3554V38.1068H72.3725V34.9042ZM78.7481 34.9042H75.7222V38.1068H78.7481V34.9042ZM61.062 45.4594L62.0847 42.1305L63.1075 45.4594H66.4146L63.7382 47.5163L64.7612 50.8452L62.0847 48.7792L59.4084 50.8452L60.4311 47.5163L57.7633 45.4594H61.062ZM78.8077 45.4594L79.8305 42.1305L80.8534 45.4594H84.1605L81.4842 47.5163L82.507 50.8452L79.8305 48.7792L77.1542 50.8452L78.1771 47.5163L75.5007 45.4594H78.8077Z" fill="white"/>
<path fill-rule="evenodd" clip-rule="evenodd" d="M133.426 3.21671C132.208 4.72547 131.94 7.58463 133.686 11.3232C135.822 15.8996 137.851 23.5941 135.584 27.5428C135.584 27.5428 136.274 19.3862 133.218 12.775C131.916 9.76806 129.954 4.99306 131.791 2.0793C133.508 -0.644156 136.783 -0.505384 138.845 1.41425C140.471 2.92848 141.467 6.90202 139.07 7.93164C135.899 9.29308 134.655 5.29781 136.708 4.30415C137.006 4.15873 137.408 4.17558 137.872 4.2531C137.602 1.51907 134.895 1.39264 133.426 3.21671ZM137.105 3.61502C136.047 3.26849 133.48 6.19887 136.627 8.65201C138.403 12.8884 137.071 22.3965 137.071 22.3965C137.021 18.9493 136.142 15.7106 135.044 13.0523C134.972 12.8767 134.899 12.7019 134.827 12.528C133.389 9.06432 132.097 5.95351 133.766 3.70595C135.322 1.61643 137.176 3.63852 137.105 3.61502ZM123.135 10.3321C123.109 10.3105 122.235 7.68162 123.165 5.64576C123.783 4.29252 125.328 3.18609 126.676 3.15285C129.672 3.0796 132.401 6.89371 129.929 9.29058C129.015 10.1771 127.561 10.2206 126.611 9.44052C125.349 8.40544 126.531 6.99165 126.531 6.99165C123.742 9.10752 127.645 10.6543 127.645 10.6543C134.186 18.8131 133.263 33.7954 123.452 37.5376C133.44 28.6637 132.043 17.4447 123.135 10.3321ZM110.541 13.6813C110.478 13.7969 110.342 13.8394 110.192 13.9158C108.757 14.641 108.531 16.0174 109.55 17.1434C108.434 13.4935 113.867 13.6344 113.04 17.9187C112.503 20.7006 109.892 21.7417 107.309 20.7475C102.191 18.7615 104.03 12.7688 107.596 10.1815C109.739 8.62483 115.001 6.14532 122.794 11.215C122.794 11.215 130.924 16.0696 129.629 26.0832C128.95 31.3284 124.526 36.166 120.408 38.6058C120.408 38.6058 131.418 30.338 128.402 21.0159C127.265 17.3415 123.994 13.2204 120.09 11.5253C116.741 10.0707 112.586 9.93699 110.541 13.6813ZM131.589 9.8532C131.742 10.5207 131.922 11.3086 132.118 11.9913C131.429 11.0325 130.791 10.3999 130.458 10.0696C130.278 9.89034 130.187 9.80009 130.226 9.795C131.037 9.16059 131.163 8.35426 131.163 8.35426C131.244 8.34455 131.394 9.00076 131.589 9.8532ZM139.235 8.66827C139.235 8.66827 140.084 11.726 139.988 16.2594C139.896 20.6524 138.911 26.4628 135.729 30.2447C137.974 23.9526 139.169 15.3558 137.329 8.96328C138.304 9.2337 139.113 8.74191 139.223 8.67469C139.232 8.66965 139.236 8.66725 139.236 8.66725C139.236 8.66725 139.236 8.66765 139.235 8.66827ZM128.463 10.6628C128.905 10.8612 129.914 10.2248 129.85 10.1535C134.119 14.2514 135.406 20.8989 134.724 26.7579C132.794 43.337 111.686 42.2839 112.098 41.7994C112.523 41.3016 124.66 40.4794 129.451 33.541C133.23 28.069 133.957 19.0957 128.463 10.6628ZM113.342 15.4543C113.342 15.4543 112.556 13.9605 111.261 13.8457C116.649 5.27917 136.213 19.9646 124.595 33.2467C129.146 27.2927 128.137 19.5355 122.44 15.3111C120.018 13.515 116.29 13.0407 113.342 15.4543ZM112.902 20.1619C112.902 20.1619 114.094 18.6598 113.57 16.2023C113.57 16.2023 118.506 11.7216 123.859 17.4704C123.859 17.4704 129.72 23.8541 124.832 30.4613C126.631 26.427 125.547 22.3648 123.078 19.767C120.532 17.087 116.116 16.1989 112.902 20.1619ZM117.886 18.1598C121.9 17.869 125.495 22.7197 125.116 26.9733C124.887 29.5381 123.267 31.9867 121.97 32.7879C124.611 28.8895 123.056 24.2881 121.635 22.6272C118.993 19.5368 116.345 19.4712 114.042 19.8689C114.042 19.8689 115.85 18.3062 117.886 18.1598ZM114.831 24.854C114.301 23.612 115.377 23.0518 116.249 23.6249C117.467 24.424 117.325 26.2297 116.586 27.3187C116.059 28.0949 115.225 28.6691 114.234 28.6932C109.889 28.7939 108.67 22.4774 112.995 20.7792C119.777 18.1165 125.746 26.6223 120.876 33.2289C120.876 33.2289 123.295 25.9499 117.765 24.125C117.088 22.7812 115.603 22.1632 114.654 22.9078C113.179 24.0622 115.092 25.4638 114.831 24.854ZM120.725 28.622C121.189 31.0639 120.202 34.9405 115.307 38.029C121.175 32.3449 117.426 27.7248 117.273 27.6908C118.284 26.1544 118.006 25.1364 117.935 24.8756C117.924 24.8368 117.918 24.8147 117.922 24.8102C117.936 24.7919 120.2 25.8539 120.725 28.622ZM107.694 26.6413C109.407 27.0098 111.496 28.5905 111.828 31.8393C112.314 36.5789 107.067 40.2485 102.93 41.0285C99.9858 41.5843 97.3554 43.1681 96.5224 44.2802C99.4623 38.9338 108.282 38.9947 109.726 33.2865C110.519 30.1515 108.094 26.6755 104.58 27.1586C104.434 27.178 105.872 26.249 107.694 26.6413ZM104.647 30.0723C104.649 30.0707 104.655 30.0633 104.664 30.0509C104.79 29.8791 105.599 28.7782 106.897 30.0478C106.897 30.0478 107.83 31.215 106.609 32.0388C105.928 32.5597 104.818 32.4749 104.152 31.9716C102.361 30.6168 103.196 27.6895 105.327 27.6375C108.85 27.5513 110.248 31.9418 108.457 34.6805C105.697 38.8954 100.418 38.7088 97.4067 42.4221C97.4067 42.4221 97.539 38.2676 100.507 37.1237C100.507 37.1237 105.398 35.4251 105.322 32.872C105.322 32.872 106.67 32.9274 107.397 32.0048C108.553 30.533 106.898 28.9869 106.104 28.9812C104.994 28.9725 104.376 30.2967 104.647 30.0723ZM116.606 28.4734C116.699 28.3958 116.756 28.3488 116.774 28.356C118.067 28.8775 120.84 36.6105 109.434 40.5181C117.439 35.3097 114.481 29.3996 114.481 29.3996C115.564 29.3416 116.293 28.7343 116.606 28.4734ZM104.814 41.2653C115.925 36.5777 111.611 28.7685 111.611 28.7685C112.747 29.4697 113.817 29.4256 113.817 29.4256C115.297 33.0357 114.106 39.558 104.814 41.2653ZM114.85 48.3776C102.584 44.2184 96.0946 48.9767 96.0946 48.9767C100.247 45.91 104.686 44.8226 108.608 45.0483C110.206 45.1403 112.059 45.7094 113.957 46.2921C117.16 47.2756 120.489 48.298 122.932 47.1296C124.395 46.43 125.497 44.6931 123.711 43.4008C122.673 43.0602 122.814 41.9917 122.814 41.9917C123.224 40.5891 124.625 40.6572 125.512 41.1778C127.465 42.3241 127.704 44.9336 127.053 46.2561C125.583 49.2445 122.421 49.9203 119.35 49.5715C117.742 49.3883 116.221 48.8437 114.85 48.3776ZM95.3739 48.6035C98.8734 42.7426 106.323 42.6951 112.737 42.6542C115.861 42.6343 118.739 42.6159 120.795 41.9281C122.238 41.5592 123.138 43.1244 120.873 43.9941C120.18 44.2599 116.573 44.7789 111.378 44.176C100.856 42.9533 95.8195 48.1457 95.4019 48.5762C95.3835 48.5952 95.3735 48.6043 95.3735 48.6043L95.3739 48.6035ZM112.367 44.8065C112.367 44.8065 118.495 45.8434 120.984 44.6347C121.755 44.2599 122.397 44.0226 122.984 44.149C124.16 44.4015 124.223 45.4823 123.407 46.1559C120.738 48.3599 114.764 45.8261 112.367 44.8065ZM109.113 48.3611C110.893 49.5223 111.896 52.0113 109.683 53.7648C109.683 53.7648 107.367 55.4846 105.2 52.986C103.904 51.0396 106.205 49.4449 107.707 50.9262C108.112 51.3254 108.39 51.8976 107.874 52.5854C110.594 50.8726 108.502 48.8619 105.636 48.4995C102.659 48.1228 98.5203 48.7442 97.2851 49.2575C97.3007 49.2487 104.374 45.2738 109.113 48.3611ZM107.474 50.1293C107.474 50.1293 106.022 49.4016 105.03 50.29C105.03 50.29 103.349 49.1237 101.151 49.3914C102.224 48.4879 107.499 48.7407 107.474 50.1293Z" fill="white"/>
</svg>
