<svg width="120" height="45" viewBox="0 0 120 45" fill="none" xmlns="http://www.w3.org/2000/svg">
<path fill-rule="evenodd" clip-rule="evenodd" d="M6.05972 2.62311C4.80086 1.13565 2.48222 1.23875 2.25066 3.46825C2.64844 3.40503 2.99299 3.39128 3.24846 3.50987C5.00657 4.32016 3.94083 7.57814 1.2247 6.46795C-0.828762 5.62833 0.0248289 2.38806 1.41782 1.15327C3.18351 -0.412121 5.98891 -0.525285 7.45983 1.69559C9.03356 4.07165 7.35337 7.96547 6.23738 10.4175C3.61954 15.8087 4.21063 22.4601 4.21063 22.4601C2.2692 19.24 4.00704 12.9655 5.83691 9.23365C7.33291 6.18496 7.1026 3.85345 6.05972 2.62311ZM2.90786 2.9479C2.84732 2.96707 4.43518 1.31814 5.76812 3.02206C7.19798 4.85486 6.09153 7.3916 4.85959 10.2161C4.79773 10.3579 4.73555 10.5005 4.67337 10.6437C3.73282 12.8114 2.97964 15.4524 2.93737 18.2634C2.93737 18.2634 1.79649 10.51 3.31736 7.05537C6.01352 5.05493 3.81468 2.66532 2.90786 2.9479ZM14.8748 8.4254C7.24393 14.2255 6.04714 23.3741 14.604 30.6104C6.19895 27.5589 5.40839 15.3414 11.0122 8.68814C11.0122 8.68814 14.3553 7.42683 11.9659 5.70141C11.9659 5.70141 12.9788 6.8543 11.8977 7.69837C11.084 8.3345 9.83796 8.29907 9.05517 7.57611C6.93762 5.62155 9.2752 2.51129 11.8415 2.57102C12.9968 2.59813 14.3203 3.50038 14.8498 4.6039C15.6461 6.26407 14.8975 8.40778 14.8748 8.4254ZM25.6632 11.1566C23.9115 8.10322 20.3529 8.21223 17.4834 9.39842C14.1393 10.7807 11.337 14.1413 10.3636 17.1377C7.77979 24.7394 17.2108 31.4815 17.2108 31.4815C13.6838 29.4919 9.89387 25.5471 9.31248 21.2698C8.20312 13.1041 15.167 9.14536 15.167 9.14536C21.8429 5.01127 26.3502 7.03321 28.1865 8.30265C31.2409 10.4125 32.8166 15.2993 28.4319 16.9188C26.2194 17.7295 23.9831 16.8805 23.5225 14.612C22.8143 11.1183 27.4685 11.0034 26.5128 13.9798C27.3857 13.0615 27.192 11.9392 25.9627 11.3478C25.8339 11.2855 25.7173 11.2508 25.6632 11.1566ZM7.99827 6.81258C7.99827 6.81258 8.10618 7.4701 8.80085 7.98745C8.83458 7.9916 8.75661 8.06519 8.60177 8.21135C8.31638 8.48072 7.76985 8.99657 7.18024 9.7784C7.34831 9.22175 7.5025 8.57925 7.63314 8.0349C7.79997 7.33977 7.92838 6.80465 7.99827 6.81258ZM1.08233 7.06779C1.08233 7.06779 1.0862 7.06973 1.09331 7.07384C1.18801 7.12866 1.88093 7.52971 2.71637 7.3092C1.13957 12.522 2.16399 19.5324 4.0865 24.6633C1.36065 21.5794 0.517244 16.8412 0.438266 13.2589C0.356404 9.56212 1.08317 7.06863 1.08317 7.06863C1.08256 7.06812 1.08233 7.06779 1.08233 7.06779ZM9.12397 8.27884L9.12292 8.2798L9.12397 8.27884ZM9.46458 27.3514C13.5687 33.0094 23.9656 33.6798 24.3295 34.0858C24.6827 34.4808 6.60076 35.3396 4.94806 21.82C4.36346 17.0422 5.46631 11.6214 9.12292 8.2798C9.06772 8.33789 9.9324 8.85689 10.3108 8.69512C5.60449 15.5718 6.22769 22.8891 9.46458 27.3514ZM15.4704 12.4856C10.5905 15.9305 9.72554 22.2561 13.6243 27.1114C3.67209 16.2803 20.4311 4.30495 25.0466 11.2906C23.9372 11.3842 23.264 12.6024 23.264 12.6024C20.7387 10.6342 17.545 11.0209 15.4704 12.4856ZM14.9236 16.1192C12.8093 18.2376 11.8803 21.5502 13.4216 24.84C9.23456 19.452 14.2552 14.2464 14.2552 14.2464C18.8404 9.55854 23.0692 13.2124 23.0692 13.2124C22.6202 15.2163 23.6413 16.4412 23.6413 16.4412C20.8882 13.2096 17.1049 13.9338 14.9236 16.1192ZM19.3717 14.8086C21.1157 14.928 22.6648 16.2023 22.6648 16.2023C20.6914 15.878 18.4234 15.9315 16.1598 18.4516C14.9431 19.806 13.6107 23.5583 15.8734 26.7372C14.7621 26.0839 13.3742 24.0871 13.1783 21.9957C12.8535 18.527 15.933 14.5715 19.3717 14.8086ZM21.9884 20.2675C21.765 20.7648 23.4041 19.6217 22.1404 18.6804C21.3269 18.0732 20.0548 18.5772 19.4755 19.673C14.7385 21.1611 16.8102 27.0969 16.8102 27.0969C12.6386 21.7094 17.7518 14.7733 23.561 16.9446C27.2667 18.3294 26.2223 23.4803 22.4997 23.3981C21.6514 23.3785 20.937 22.9103 20.4855 22.2773C19.8518 21.3893 19.7307 19.9168 20.7739 19.2652C21.5209 18.7978 22.4425 19.2547 21.9884 20.2675ZM19.3409 20.2317C19.3439 20.2354 19.3387 20.2534 19.3297 20.2851C19.2687 20.4978 19.0307 21.3279 19.8971 22.5808C19.7656 22.6085 16.5541 26.376 21.5811 31.0111C17.3877 28.4926 16.5425 25.3314 16.9397 23.3402C17.3895 21.0829 19.3292 20.2168 19.3409 20.2317ZM28.1026 21.7249C29.6633 21.4051 30.8947 22.1626 30.7701 22.1468C27.7601 21.7528 25.6825 24.5873 26.3617 27.1438C27.5988 31.7987 35.154 31.749 37.6724 36.1088C36.9588 35.2019 34.7056 33.9103 32.1835 33.4571C28.6396 32.8211 24.1452 29.8286 24.5613 25.9636C24.8459 23.3144 26.6354 22.0254 28.1026 21.7249ZM30.7124 24.5228C30.9444 24.7057 30.4151 23.6259 29.4642 23.633C28.7844 23.6376 27.3662 24.8985 28.357 26.0986C28.9796 26.851 30.1348 26.8058 30.1348 26.8058C30.0694 28.8877 34.2593 30.2729 34.2593 30.2729C36.8015 31.2057 36.9149 34.5935 36.9149 34.5935C34.3355 31.5654 29.8133 31.7176 27.4488 28.2806C25.9144 26.0473 27.1121 22.467 30.1303 22.5373C31.9553 22.5797 32.6705 24.9668 31.1368 26.0716C30.5662 26.482 29.6151 26.5512 29.0317 26.1264C27.986 25.4546 28.7856 24.5028 28.7856 24.5028C29.8973 23.4674 30.5902 24.3652 30.6982 24.5053C30.706 24.5154 30.7108 24.5215 30.7124 24.5228ZM22.2886 23.9742C22.2886 23.9742 19.7546 28.7936 26.6115 33.0409C16.8408 29.8545 19.2163 23.5485 20.3246 23.1232C20.34 23.1173 20.3883 23.1556 20.4683 23.2189C20.7366 23.4317 21.3609 23.9269 22.2886 23.9742ZM22.8568 23.9954C22.8568 23.9954 23.7741 24.0314 24.7473 23.4596C24.7473 23.4596 21.0514 29.8277 30.5692 33.6502C22.6094 32.258 21.5893 26.9393 22.8568 23.9954ZM21.9725 39.45C20.798 39.8301 19.4946 40.2742 18.1171 40.4236C15.4872 40.708 12.7778 40.157 11.5186 37.72C10.9614 36.6416 11.166 34.5137 12.8388 33.5789C13.5985 33.1544 14.7991 33.0988 15.1505 34.2426C15.1505 34.2426 15.2708 35.1139 14.3818 35.3916C12.8517 36.4455 13.7955 37.8619 15.0489 38.4323C17.1418 39.3851 19.9936 38.5514 22.7375 37.7494C24.3629 37.2742 25.9505 36.8101 27.3198 36.7351C30.6791 36.5511 34.4814 37.4378 38.0388 39.9386C38.0388 39.9386 32.4797 36.0583 21.9725 39.45ZM38.6563 39.6342L38.6565 39.6349C38.6565 39.6349 38.648 39.6274 38.6322 39.612C38.2745 39.2609 33.9601 35.0267 24.9462 36.0238C20.4967 36.5154 17.4069 36.0922 16.813 35.8754C14.8728 35.1662 15.644 33.8899 16.8797 34.1907C18.641 34.7516 21.1064 34.7666 23.7825 34.7828C29.2767 34.8162 35.6584 34.8549 38.6563 39.6342ZM14.6419 37.6383C13.9431 37.089 13.9969 36.2077 15.0045 36.0018C15.5074 35.8987 16.0577 36.0922 16.7177 36.3978C18.8497 37.3835 24.0998 36.5379 24.0998 36.5379C22.0458 37.3694 16.9285 39.4356 14.6419 37.6383ZM37.019 40.1675V40.1675ZM37.019 40.1675C35.9609 39.7489 32.4155 39.2422 29.8652 39.5494C27.4104 39.845 25.618 41.4846 27.9478 42.8814C27.5063 42.3205 27.7441 41.8538 28.0912 41.5283C29.3782 40.3204 31.3491 41.6208 30.2388 43.208C28.3822 45.2455 26.3982 43.843 26.3982 43.843C24.5032 42.4132 25.3625 40.3835 26.8873 39.4365C30.9466 36.919 37.0057 40.1604 37.019 40.1675ZM33.7078 40.2767C31.8244 40.0584 30.3844 41.0095 30.3844 41.0095C29.5351 40.2851 28.2911 40.8785 28.2911 40.8785C28.2693 39.7461 32.7879 39.5399 33.7078 40.2767ZM63.059 44.3136L60.195 42.2231L57.3384 44.3136L58.4343 40.9275L55.5704 38.837H59.1065L60.195 35.4509L61.2909 38.837H64.8197L61.963 40.9275L63.059 44.3136ZM61.24 6.71328L65.1193 9.57675V18.2039H69.0353V33.5885H69.0056L67.9974 30.4674L66.2513 35.8852H62.8103V33.9639H60.9765L60.1948 31.5495L59.4204 33.9639H57.8204V35.8852H54.5328L52.7867 30.4674L51.7858 33.5885H51.6035V18.2039H55.5193V9.57675L59.3914 6.71328L60.3192 6.913e-08L61.24 6.71328ZM78.2624 34.7957L76.4724 36.106L77.1591 38.2259L75.362 36.9157L73.572 38.2259L74.2514 36.106L72.4689 34.7957H74.6825L75.362 32.6758L76.0487 34.7957H78.2624ZM42.5222 34.7957H44.7359L45.4154 32.6758L46.1094 34.7957H48.323L46.5331 36.106L47.2125 38.2259L45.4154 36.9157L43.6328 38.2259L44.3122 36.106L42.5222 34.7957ZM58.7923 9.77545H56.8197V11.763H58.7923V9.77545ZM63.8041 9.77545H61.8388V11.763H63.8041V9.77545ZM58.7923 12.9628H56.8197V14.9503H58.7923V12.9628ZM63.8041 12.9628H61.8388V14.9503H63.8041V12.9628ZM58.7923 16.1649H56.8197V18.1451H58.7923V16.1649ZM63.8041 16.1649H61.8388V18.1451H63.8041V16.1649ZM56.1476 20.1252H53.5613V22.7383H56.1476V20.1252ZM61.605 20.1252H59.0189V22.7383H61.605V20.1252ZM67.0698 20.1252H64.4762V22.7383H67.0698V20.1252ZM56.1476 24.3063H53.5613V26.912H56.1476V24.3063ZM61.605 24.3063H59.0189V26.912H61.605V24.3063ZM67.0698 24.3063H64.4762V26.912H67.0698V24.3063ZM56.1476 28.48H53.5613V31.0931H56.1476V28.48ZM61.605 28.48H59.0189V31.0931H61.605V28.48ZM67.0698 28.48H64.4762V31.0931H67.0698V28.48ZM51.9103 37.0924L52.7869 34.3762L53.6636 37.0924H56.4982L54.2042 38.7707L55.081 41.4869L52.7869 39.8013L50.4929 41.4869L51.3695 38.7707L49.0828 37.0924H51.9103ZM67.1209 37.0924L67.9976 34.3762L68.8743 37.0924H71.709L69.415 38.7707L70.2917 41.4869L67.9976 39.8013L65.7036 41.4869L66.5804 38.7707L64.2863 37.0924H67.1209Z" fill="black"/>
<path fill-rule="evenodd" clip-rule="evenodd" d="M113.937 2.62467C112.893 3.85573 112.663 6.18865 114.159 9.23915C115.99 12.9732 117.729 19.2515 115.787 22.4734C115.787 22.4734 116.378 15.8181 113.759 10.4237C112.642 7.97021 110.961 4.07407 112.536 1.6966C114.007 -0.525597 116.814 -0.412367 118.581 1.15396C119.975 2.38948 120.829 5.63168 118.774 6.47179C116.057 7.58265 114.99 4.32273 116.749 3.51196C117.005 3.3933 117.35 3.40705 117.748 3.47031C117.516 1.23948 115.196 1.13632 113.937 2.62467ZM117.09 2.94966C116.183 2.66691 113.983 5.05794 116.681 7.05958C118.202 10.5162 117.061 18.2743 117.061 18.2743C117.018 15.4616 116.265 12.819 115.324 10.65C115.262 10.5067 115.199 10.3641 115.137 10.2221C113.905 7.396 112.798 4.85775 114.228 3.02386C115.562 1.31892 117.151 2.96883 117.09 2.94966ZM105.116 8.43042C105.093 8.41279 104.344 6.26779 105.141 4.60664C105.671 3.50246 106.995 2.59968 108.151 2.57255C110.719 2.51279 113.058 5.62489 110.939 7.58062C110.156 8.30401 108.909 8.33946 108.095 7.70296C107.013 6.85839 108.027 5.70481 108.027 5.70481C105.636 7.43125 108.981 8.69332 108.981 8.69332C114.588 15.3505 113.797 27.5753 105.387 30.6287C113.949 23.3881 112.752 14.2339 105.116 8.43042ZM94.3214 11.1632C94.2673 11.2575 94.1505 11.2922 94.0217 11.3545C92.7917 11.9463 92.5979 13.0693 93.4713 13.9881C92.515 11.01 97.172 11.1249 96.4634 14.6207C96.0025 16.8906 93.7648 17.7401 91.551 16.9288C87.1637 15.3084 88.7404 10.4187 91.7966 8.3076C93.634 7.0374 98.144 5.01425 104.824 9.15082C104.824 9.15082 111.792 13.1119 110.682 21.2825C110.1 25.5623 106.308 29.5095 102.779 31.5003C102.779 31.5003 112.215 24.7541 109.63 17.1479C108.656 14.1498 105.852 10.7872 102.506 9.40402C99.6349 8.21712 96.0741 8.10805 94.3214 11.1632ZM112.362 8.03968C112.493 8.58436 112.647 9.22724 112.815 9.78422C112.225 9.00193 111.679 8.48576 111.393 8.21623C111.238 8.06999 111.16 7.99635 111.194 7.9922C111.889 7.47455 111.997 6.81663 111.997 6.81663C112.067 6.8087 112.195 7.34414 112.362 8.03968ZM118.916 7.07284C118.916 7.07284 119.643 9.56782 119.561 13.2668C119.482 16.8513 118.638 21.5923 115.911 24.678C117.835 19.544 118.86 12.5295 117.282 7.31356C118.118 7.5342 118.811 7.13293 118.906 7.07809C118.913 7.07397 118.917 7.07201 118.917 7.07201C118.917 7.07201 118.917 7.07234 118.916 7.07284ZM109.683 8.70029C110.062 8.86216 110.927 8.34285 110.872 8.28473C114.53 11.6283 115.634 17.0524 115.049 21.833C113.395 35.3607 95.3025 34.5014 95.6559 34.1061C96.02 33.6999 106.423 33.029 110.53 27.3677C113.768 22.9028 114.392 15.5811 109.683 8.70029ZM96.722 12.6099C96.722 12.6099 96.0484 11.391 94.9384 11.2974C99.5566 4.30752 116.326 16.29 106.367 27.1276C110.269 22.2694 109.403 15.9399 104.52 12.4931C102.444 11.0275 99.2488 10.6405 96.722 12.6099ZM96.3445 16.451C96.3445 16.451 97.3662 15.2254 96.9169 13.2202C96.9169 13.2202 101.148 9.56423 105.736 14.2549C105.736 14.2549 110.76 19.4636 106.57 24.8548C108.113 21.563 107.183 18.2485 105.067 16.1288C102.885 13.9421 99.0992 13.2174 96.3445 16.451ZM100.617 14.8175C104.057 14.5801 107.139 18.5381 106.814 22.0088C106.618 24.1015 105.229 26.0994 104.117 26.7532C106.381 23.5723 105.048 19.8178 103.83 18.4626C101.565 15.941 99.2962 15.8874 97.3216 16.2119C97.3216 16.2119 98.8716 14.9369 100.617 14.8175ZM97.9984 20.2795C97.544 19.2661 98.4661 18.809 99.2136 19.2767C100.257 19.9287 100.136 21.402 99.5022 22.2906C99.0504 22.924 98.3356 23.3924 97.4868 23.4121C93.7619 23.4943 92.7169 18.3404 96.4248 16.9547C102.237 14.7821 107.354 21.7224 103.18 27.113C103.18 27.113 105.253 21.1737 100.513 19.6847C99.9331 18.5883 98.6602 18.084 97.8463 18.6915C96.5818 19.6334 98.2219 20.7771 97.9984 20.2795ZM103.05 23.3541C103.447 25.3465 102.602 28.5095 98.4059 31.0296C103.436 26.3917 100.222 22.6219 100.091 22.5942C100.958 21.3406 100.72 20.51 100.659 20.2972C100.65 20.2655 100.644 20.2475 100.647 20.2438C100.659 20.2289 102.6 21.0954 103.05 23.3541ZM91.8805 21.7379C93.3487 22.0385 95.1391 23.3283 95.4239 25.9791C95.8403 29.8464 91.3432 32.8406 87.7972 33.477C85.2736 33.9306 83.0191 35.2228 82.3051 36.1303C84.825 31.7679 92.3847 31.8176 93.6225 27.16C94.3021 24.602 92.2232 21.7657 89.2115 22.16C89.0868 22.1758 90.3189 21.4178 91.8805 21.7379ZM89.2692 24.5374C89.2708 24.5361 89.2756 24.53 89.2834 24.5199C89.3915 24.3798 90.0847 23.4814 91.1972 24.5174C91.1972 24.5174 91.9972 25.4698 90.9508 26.142C90.3672 26.567 89.4155 26.4977 88.8445 26.0871C87.31 24.9817 88.0255 22.5932 89.8516 22.5507C92.8716 22.4804 94.0701 26.0628 92.5347 28.2974C90.1689 31.7365 85.644 31.5843 83.063 34.6141C83.063 34.6141 83.1765 31.2243 85.7202 30.2909C85.7202 30.2909 89.9125 28.905 89.8472 26.8218C89.8472 26.8218 91.003 26.867 91.626 26.1142C92.6174 24.9133 91.1983 23.6517 90.5181 23.6471C89.5666 23.64 89.037 24.7204 89.2692 24.5374ZM99.5194 23.2328C99.5994 23.1694 99.6478 23.1311 99.6632 23.137C100.772 23.5625 103.149 29.8722 93.3725 33.0606C100.234 28.8108 97.698 23.9885 97.698 23.9885C98.6262 23.9412 99.2509 23.4457 99.5194 23.2328ZM89.4124 33.6703C98.936 29.8454 95.2379 23.4736 95.2379 23.4736C96.2116 24.0457 97.1294 24.0097 97.1294 24.0097C98.3977 26.9553 97.377 32.2772 89.4124 33.6703ZM98.0143 39.4735C87.5008 36.0798 81.9384 39.9624 81.9384 39.9624C85.4979 37.4601 89.3025 36.5729 92.6638 36.757C94.0339 36.8321 95.6224 37.2964 97.2488 37.7719C99.9944 38.5744 102.848 39.4086 104.942 38.4552C106.196 37.8844 107.141 36.4672 105.61 35.4127C104.72 35.1348 104.84 34.263 104.84 34.263C105.192 33.1185 106.393 33.1741 107.153 33.5989C108.827 34.5342 109.032 36.6634 108.474 37.7425C107.214 40.1809 104.503 40.7323 101.872 40.4477C100.494 40.2982 99.1895 39.8538 98.0143 39.4735ZM81.3206 39.6578C84.3202 34.8757 90.7058 34.8369 96.2032 34.8035C98.8809 34.7873 101.348 34.7723 103.11 34.2111C104.347 33.9101 105.118 35.1872 103.177 35.8968C102.583 36.1137 99.491 36.5372 95.0388 36.0452C86.0196 35.0476 81.7026 39.2843 81.3446 39.6356C81.3289 39.6511 81.3203 39.6585 81.3203 39.6585L81.3206 39.6578ZM95.8858 36.5597C95.8858 36.5597 101.139 37.4058 103.272 36.4195C103.933 36.1137 104.483 35.9201 104.986 36.0232C105.995 36.2293 106.048 37.1111 105.349 37.6608C103.061 39.4591 97.9409 37.3917 95.8858 36.5597ZM93.0966 39.46C94.6223 40.4076 95.4821 42.4385 93.5859 43.8692C93.5859 43.8692 91.6007 45.2725 89.743 43.2337C88.6321 41.6456 90.6042 40.3444 91.892 41.553C92.2393 41.8788 92.4771 42.3457 92.0354 42.9069C94.3667 41.5093 92.5732 39.8687 90.1169 39.573C87.565 39.2656 84.0175 39.7726 82.9588 40.1915C82.9721 40.1843 89.0349 36.941 93.0966 39.46ZM91.6919 40.9029C91.6919 40.9029 90.4472 40.3091 89.5974 41.0339C89.5974 41.0339 88.1565 40.0823 86.272 40.3007C87.1925 39.5635 91.7137 39.7698 91.6919 40.9029Z" fill="black"/>
</svg>
