<svg width="120" height="45" viewBox="0 0 120 45" fill="none" xmlns="http://www.w3.org/2000/svg">
<path fill-rule="evenodd" clip-rule="evenodd" d="M6.05972 2.95307C4.80086 1.46561 2.48222 1.56871 2.25066 3.7982C2.64844 3.73499 2.99299 3.72124 3.24847 3.83983C5.00657 4.65011 3.94083 7.9081 1.2247 6.7979C-0.828762 5.95828 0.0248289 2.71802 1.41782 1.48323C3.18351 -0.0821647 5.98891 -0.195329 7.45983 2.02555C9.03356 4.40161 7.35337 8.29543 6.23738 10.7475C3.61954 16.1386 4.21063 22.79 4.21063 22.79C2.2692 19.57 4.00704 13.2955 5.83691 9.5636C7.33291 6.51492 7.1026 4.1834 6.05972 2.95307ZM2.90786 3.27786C2.84733 3.29703 4.43518 1.64809 5.76812 3.35201C7.19798 5.18481 6.09153 7.72155 4.85959 10.546C4.79773 10.6878 4.73555 10.8304 4.67337 10.9736C3.73282 13.1413 2.97964 15.7824 2.93737 18.5934C2.93737 18.5934 1.79649 10.8399 3.31736 7.38533C6.01352 5.38489 3.81468 2.99528 2.90786 3.27786ZM14.8748 8.75536C7.24393 14.5554 6.04714 23.7041 14.604 30.9404C6.19895 27.8888 5.40839 15.6713 11.0122 9.01809C11.0122 9.01809 14.3553 7.75678 11.9659 6.03137C11.9659 6.03137 12.9788 7.18426 11.8977 8.02833C11.084 8.66446 9.83796 8.62902 9.05517 7.90606C6.93762 5.9515 9.2752 2.84125 11.8415 2.90098C12.9968 2.92808 14.3203 3.83034 14.8498 4.93386C15.6461 6.59402 14.8975 8.73774 14.8748 8.75536ZM25.6632 11.4865C23.9115 8.43318 20.3529 8.54218 17.4834 9.72838C14.1393 11.1107 11.337 14.4713 10.3636 17.4676C7.77979 25.0694 17.2108 31.8115 17.2108 31.8115C13.6838 29.8219 9.89387 25.877 9.31248 21.5998C8.20312 13.4341 15.167 9.47532 15.167 9.47532C21.8429 5.34123 26.3502 7.36316 28.1865 8.63261C31.2409 10.7424 32.8166 15.6292 28.4319 17.2487C26.2194 18.0595 23.9831 17.2105 23.5225 14.942C22.8143 11.4483 27.4685 11.3334 26.5128 14.3097C27.3857 13.3915 27.192 12.2691 25.9627 11.6777C25.8339 11.6155 25.7173 11.5808 25.6632 11.4865ZM7.99827 7.14254C7.99827 7.14254 8.10618 7.80006 8.80085 8.3174C8.83458 8.32155 8.75661 8.39515 8.60177 8.5413C8.31638 8.81067 7.76986 9.32653 7.18024 10.1084C7.34831 9.55171 7.5025 8.90921 7.63314 8.36486C7.79997 7.66972 7.92838 7.13461 7.99827 7.14254ZM1.08233 7.39775C1.08233 7.39775 1.0862 7.39968 1.09331 7.4038C1.18801 7.45861 1.88093 7.85967 2.71637 7.63916C1.13957 12.852 2.16399 19.8624 4.0865 24.9933C1.36065 21.9094 0.517245 17.1712 0.438266 13.5889C0.356404 9.89208 1.08317 7.39859 1.08317 7.39859C1.08256 7.39808 1.08233 7.39775 1.08233 7.39775ZM9.12397 8.60879L9.12292 8.60976L9.12397 8.60879ZM9.46458 27.6814C13.5687 33.3393 23.9656 34.0098 24.3295 34.4157C24.6827 34.8108 6.60076 35.6696 4.94806 22.1499C4.36346 17.3722 5.46631 11.9514 9.12292 8.60976C9.06772 8.66785 9.9324 9.18684 10.3108 9.02508C5.60449 15.9018 6.22768 23.2191 9.46458 27.6814ZM15.4704 12.8156C10.5905 16.2604 9.72554 22.586 13.6243 27.4414C3.67209 16.6103 20.4311 4.63491 25.0466 11.6206C23.9372 11.7142 23.264 12.9323 23.264 12.9323C20.7387 10.9641 17.545 11.3509 15.4704 12.8156ZM14.9236 16.4492C12.8093 18.5675 11.8803 21.8801 13.4216 25.17C9.23456 19.782 14.2552 14.5763 14.2552 14.5763C18.8404 9.8885 23.0692 13.5423 23.0692 13.5423C22.6202 15.5463 23.6413 16.7712 23.6413 16.7712C20.8882 13.5395 17.1049 14.2637 14.9236 16.4492ZM19.3717 15.1386C21.1157 15.258 22.6648 16.5322 22.6648 16.5322C20.6914 16.2079 18.4234 16.2615 16.1598 18.7816C14.9431 20.1359 13.6107 23.8882 15.8734 27.0672C14.7621 26.4138 13.3742 24.4171 13.1783 22.3256C12.8535 18.857 15.933 14.9014 19.3717 15.1386ZM21.9884 20.5974C21.765 21.0947 23.4041 19.9517 22.1404 19.0103C21.3269 18.4032 20.0548 18.9071 19.4755 20.0029C14.7385 21.4911 16.8102 27.4268 16.8102 27.4268C12.6386 22.0394 17.7518 15.1033 23.561 17.2746C27.2667 18.6594 26.2223 23.8103 22.4997 23.7281C21.6514 23.7084 20.937 23.2403 20.4855 22.6072C19.8518 21.7192 19.7307 20.2468 20.7739 19.5952C21.5209 19.1278 22.4425 19.5846 21.9884 20.5974ZM19.3409 20.5617C19.3439 20.5654 19.3387 20.5834 19.3297 20.615C19.2687 20.8277 19.0307 21.6579 19.8971 22.9107C19.7656 22.9384 16.5541 26.7059 21.5811 31.3411C17.3877 28.8225 16.5425 25.6614 16.9397 23.6701C17.3895 21.4128 19.3292 20.5468 19.3409 20.5617ZM28.1026 22.0549C29.6633 21.735 30.8947 22.4925 30.7701 22.4767C27.7601 22.0827 25.6825 24.9173 26.3617 27.4738C27.5988 32.1286 35.154 32.079 37.6724 36.4387C36.9588 35.5318 34.7056 34.2403 32.1835 33.787C28.6396 33.151 24.1452 30.1586 24.5613 26.2936C24.8459 23.6444 26.6354 22.3554 28.1026 22.0549ZM30.7124 24.8527C30.9444 25.0357 30.4151 23.9559 29.4642 23.9629C28.7844 23.9676 27.3662 25.2284 28.357 26.4286C28.9796 27.1809 30.1348 27.1357 30.1348 27.1357C30.0694 29.2177 34.2593 30.6028 34.2593 30.6028C36.8015 31.5357 36.9149 34.9235 36.9149 34.9235C34.3355 31.8954 29.8133 32.0476 27.4488 28.6105C25.9144 26.3772 27.1121 22.797 30.1303 22.8673C31.9553 22.9097 32.6705 25.2968 31.1368 26.4015C30.5662 26.8119 29.6151 26.8811 29.0317 26.4563C27.986 25.7846 28.7856 24.8328 28.7856 24.8328C29.8973 23.7974 30.5902 24.6952 30.6982 24.8353C30.706 24.8454 30.7108 24.8515 30.7124 24.8527ZM22.2886 24.3042C22.2886 24.3042 19.7546 29.1236 26.6115 33.3709C16.8408 30.1844 19.2163 23.8784 20.3246 23.4532C20.34 23.4473 20.3883 23.4856 20.4683 23.5489C20.7366 23.7617 21.361 24.2569 22.2886 24.3042ZM22.8568 24.3254C22.8568 24.3254 23.7741 24.3613 24.7473 23.7896C24.7473 23.7896 21.0514 30.1576 30.5692 33.9802C22.6094 32.588 21.5893 27.2692 22.8568 24.3254ZM21.9725 39.78C20.798 40.16 19.4946 40.6042 18.1171 40.7536C15.4872 41.038 12.7778 40.4869 11.5186 38.05C10.9614 36.9716 11.166 34.8436 12.8388 33.9088C13.5985 33.4843 14.7991 33.4288 15.1505 34.5725C15.1505 34.5725 15.2708 35.4438 14.3818 35.7216C12.8517 36.7754 13.7955 38.1918 15.0489 38.7623C17.1418 39.7151 19.9936 38.8814 22.7375 38.0793C24.3629 37.6042 25.9505 37.1401 27.3198 37.0651C30.6791 36.881 34.4814 37.7678 38.0388 40.2685C38.0388 40.2685 32.4797 36.3883 21.9725 39.78ZM38.6563 39.9642L38.6565 39.9649C38.6565 39.9649 38.648 39.9574 38.6322 39.9419C38.2745 39.5909 33.9601 35.3567 24.9462 36.3537C20.4967 36.8454 17.4069 36.4222 16.813 36.2054C14.8728 35.4962 15.644 34.2199 16.8797 34.5207C18.641 35.0816 21.1064 35.0966 23.7825 35.1127C29.2767 35.1461 35.6584 35.1849 38.6563 39.9642ZM14.6419 37.9683C13.9431 37.419 13.997 36.5377 15.0045 36.3318C15.5074 36.2286 16.0577 36.4222 16.7177 36.7278C18.8497 37.7135 24.0998 36.8679 24.0998 36.8679C22.0458 37.6994 16.9285 39.7655 14.6419 37.9683ZM37.019 40.4975C35.9609 40.0789 32.4155 39.5722 29.8652 39.8794C27.4104 40.1749 25.618 41.8146 27.9478 43.2113C27.5063 42.6504 27.7441 42.1838 28.0912 41.8582C29.3782 40.6504 31.3491 41.9508 30.2388 43.5379C28.3822 45.5755 26.3982 44.173 26.3982 44.173C24.5032 42.7431 25.3625 40.7135 26.8873 39.7665C30.9466 37.249 37.0057 40.4904 37.019 40.4975ZM33.7078 40.6067C31.8244 40.3884 30.3844 41.3394 30.3844 41.3394C29.5351 40.615 28.2911 41.2085 28.2911 41.2085C28.2693 40.0761 32.7879 39.8699 33.7078 40.6067ZM63.059 44.6436L60.195 42.553L57.3384 44.6436L58.4343 41.2575L55.5704 39.1669H59.1065L60.195 35.7808L61.2909 39.1669H64.8197L61.963 41.2575L63.059 44.6436ZM61.24 7.04323L65.1193 9.90671V18.5338H69.0353V33.9185H69.0056L67.9974 30.7974L66.2513 36.2152H62.8103V34.2938H60.9765L60.1948 31.8795L59.4204 34.2938H57.8204V36.2152H54.5328L52.7867 30.7974L51.7858 33.9185H51.6035V18.5338H55.5193V9.90671L59.3913 7.04323L60.3192 0.329956L61.24 7.04323ZM78.2624 35.1257L76.4724 36.436L77.1591 38.5559L75.362 37.2457L73.572 38.5559L74.2514 36.436L72.4689 35.1257H74.6825L75.362 33.0057L76.0487 35.1257H78.2624ZM42.5223 35.1257H44.7359L45.4154 33.0057L46.1094 35.1257H48.323L46.5331 36.436L47.2125 38.5559L45.4154 37.2457L43.6328 38.5559L44.3122 36.436L42.5223 35.1257ZM58.7923 10.1054H56.8197V12.093H58.7923V10.1054ZM63.8041 10.1054H61.8388V12.093H63.8041V10.1054ZM58.7923 13.2928H56.8197V15.2803H58.7923V13.2928ZM63.8041 13.2928H61.8388V15.2803H63.8041V13.2928ZM58.7923 16.4948H56.8197V18.475H58.7923V16.4948ZM63.8041 16.4948H61.8388V18.475H63.8041V16.4948ZM56.1476 20.4551H53.5613V23.0683H56.1476V20.4551ZM61.605 20.4551H59.0189V23.0683H61.605V20.4551ZM67.0698 20.4551H64.4762V23.0683H67.0698V20.4551ZM56.1476 24.6362H53.5613V27.242H56.1476V24.6362ZM61.605 24.6362H59.0189V27.242H61.605V24.6362ZM67.0698 24.6362H64.4762V27.242H67.0698V24.6362ZM56.1476 28.8099H53.5613V31.423H56.1476V28.8099ZM61.605 28.8099H59.0189V31.423H61.605V28.8099ZM67.0698 28.8099H64.4762V31.423H67.0698V28.8099ZM51.9103 37.4224L52.7869 34.7062L53.6636 37.4224H56.4982L54.2042 39.1007L55.081 41.8169L52.7869 40.1312L50.4929 41.8169L51.3695 39.1007L49.0828 37.4224H51.9103ZM67.1209 37.4224L67.9976 34.7062L68.8743 37.4224H71.709L69.415 39.1007L70.2917 41.8169L67.9976 40.1312L65.7036 41.8169L66.5804 39.1007L64.2863 37.4224H67.1209Z" fill="white"/>
<path fill-rule="evenodd" clip-rule="evenodd" d="M113.937 2.95462C112.893 4.18569 112.663 6.51861 114.159 9.56911C115.99 13.3032 117.729 19.5814 115.787 22.8034C115.787 22.8034 116.378 16.148 113.759 10.7537C112.642 8.30017 110.961 4.40403 112.536 2.02656C114.007 -0.195641 116.814 -0.0824105 118.581 1.48391C119.975 2.71944 120.829 5.96163 118.774 6.80175C116.057 7.91261 114.99 4.65269 116.749 3.84192C117.005 3.72326 117.35 3.73701 117.748 3.80026C117.516 1.56944 115.196 1.46628 113.937 2.95462ZM117.09 3.27961C116.183 2.99687 113.983 5.3879 116.681 7.38953C118.202 10.8462 117.061 18.6043 117.061 18.6043C117.018 15.7916 116.265 13.149 115.324 10.98C115.262 10.8367 115.199 10.694 115.137 10.5521C113.905 7.72596 112.798 5.1877 114.228 3.35381C115.562 1.64888 117.151 3.29879 117.09 3.27961ZM105.116 8.76038C105.093 8.74274 104.344 6.59775 105.141 4.9366C105.671 3.83242 106.995 2.92963 108.151 2.90251C110.719 2.84274 113.058 5.95485 110.939 7.91057C110.156 8.63396 108.909 8.66942 108.095 8.03291C107.013 7.18834 108.027 6.03476 108.027 6.03476C105.636 7.7612 108.981 9.02327 108.981 9.02327C114.588 15.6805 113.797 27.9052 105.387 30.9586C113.949 23.718 112.752 14.5639 105.116 8.76038ZM94.3214 11.4932C94.2673 11.5875 94.1505 11.6222 94.0217 11.6845C92.7917 12.2762 92.5979 13.3993 93.4713 14.3181C92.515 11.3399 97.172 11.4549 96.4634 14.9507C96.0025 17.2205 93.7648 18.0701 91.551 17.2588C87.1637 15.6383 88.7404 10.7486 91.7966 8.63756C93.634 7.36735 98.144 5.34421 104.824 9.48077C104.824 9.48077 111.792 13.4419 110.682 21.6124C110.1 25.8923 106.308 29.8394 102.779 31.8302C102.779 31.8302 112.215 25.0841 109.63 17.4778C108.656 14.4797 105.852 11.1171 102.506 9.73398C99.6349 8.54708 96.0741 8.43801 94.3214 11.4932ZM112.362 8.36964C112.493 8.91431 112.647 9.55719 112.815 10.1142C112.225 9.33189 111.679 8.81572 111.393 8.54619C111.238 8.39995 111.16 8.32631 111.194 8.32215C111.889 7.8045 111.997 7.14659 111.997 7.14659C112.067 7.13866 112.195 7.67409 112.362 8.36964ZM118.916 7.4028C118.916 7.4028 119.643 9.89777 119.561 13.5968C119.482 17.1812 118.638 21.9222 115.911 25.008C117.835 19.874 118.86 12.8594 117.282 7.64352C118.118 7.86416 118.811 7.46289 118.906 7.40804C118.913 7.40393 118.917 7.40197 118.917 7.40197C118.917 7.40197 118.917 7.40229 118.916 7.4028ZM109.683 9.03025C110.062 9.19211 110.927 8.67281 110.872 8.61469C114.53 11.9583 115.634 17.3823 115.049 22.1629C113.395 35.6906 95.3025 34.8313 95.6559 34.436C96.02 34.0299 106.423 33.359 110.53 27.6976C113.768 23.2327 114.392 15.911 109.683 9.03025ZM96.722 12.9398C96.722 12.9398 96.0484 11.721 94.9384 11.6273C99.5566 4.63748 116.326 16.62 106.367 27.4575C110.269 22.5993 109.403 16.2699 104.52 12.823C102.444 11.3575 99.2488 10.9705 96.722 12.9398ZM96.3445 16.781C96.3445 16.781 97.3662 15.5553 96.9169 13.5502C96.9169 13.5502 101.148 9.89419 105.736 14.5848C105.736 14.5848 110.76 19.7936 106.57 25.1848C108.113 21.893 107.183 18.5784 105.067 16.4588C102.885 14.272 99.0992 13.5474 96.3445 16.781ZM100.617 15.1474C104.057 14.9101 107.139 18.868 106.814 22.3387C106.618 24.4314 105.229 26.4294 104.117 27.0831C106.381 23.9023 105.048 20.1477 103.83 18.7926C101.565 16.271 99.2962 16.2174 97.3216 16.5419C97.3216 16.5419 98.8716 15.2669 100.617 15.1474ZM97.9984 20.6095C97.544 19.5961 98.4661 19.139 99.2136 19.6066C100.257 20.2586 100.136 21.732 99.5022 22.6205C99.0504 23.2539 98.3356 23.7224 97.4868 23.742C93.7619 23.8243 92.7169 18.6703 96.4248 17.2847C102.237 15.1121 107.354 22.0523 103.18 27.443C103.18 27.443 105.253 21.5037 100.513 20.0146C99.9331 18.9182 98.6602 18.4139 97.8463 19.0215C96.5818 19.9634 98.2219 21.1071 97.9984 20.6095ZM103.05 23.684C103.447 25.6764 102.602 28.8395 98.4059 31.3596C103.436 26.7216 100.222 22.9519 100.091 22.9242C100.958 21.6706 100.72 20.8399 100.659 20.6271C100.65 20.5954 100.644 20.5774 100.647 20.5737C100.659 20.5588 102.6 21.4254 103.05 23.684ZM91.8805 22.0678C93.3487 22.3685 95.1391 23.6583 95.4239 26.3091C95.8403 30.1764 91.3432 33.1706 87.7972 33.807C85.2736 34.2605 83.0191 35.5528 82.3051 36.4602C84.825 32.0979 92.3847 32.1476 93.6225 27.49C94.3021 24.9319 92.2232 22.0957 89.2115 22.4899C89.0868 22.5057 90.3189 21.7478 91.8805 22.0678ZM89.2692 24.8673C89.2708 24.8661 89.2756 24.86 89.2834 24.8499C89.3915 24.7097 90.0847 23.8114 91.1972 24.8474C91.1972 24.8474 91.9972 25.7998 90.9508 26.4719C90.3672 26.897 89.4155 26.8277 88.8445 26.4171C87.31 25.3116 88.0255 22.9231 89.8516 22.8807C92.8716 22.8104 94.0701 26.3928 92.5347 28.6274C90.1689 32.0665 85.644 31.9142 83.063 34.9441C83.063 34.9441 83.1765 31.5543 85.7202 30.6209C85.7202 30.6209 89.9125 29.2349 89.8472 27.1517C89.8472 27.1517 91.003 27.197 91.626 26.4441C92.6174 25.2433 91.1983 23.9817 90.5181 23.977C89.5666 23.97 89.037 25.0504 89.2692 24.8673ZM99.5194 23.5627C99.5994 23.4994 99.6478 23.461 99.6632 23.4669C100.772 23.8925 103.149 30.2022 93.3725 33.3905C100.234 29.1407 97.698 24.3185 97.698 24.3185C98.6262 24.2711 99.2509 23.7756 99.5194 23.5627ZM89.4124 34.0002C98.936 30.1754 95.2379 23.8035 95.2379 23.8035C96.2116 24.3756 97.1294 24.3397 97.1294 24.3397C98.3977 27.2853 97.377 32.6072 89.4124 34.0002ZM98.0143 39.8035C87.5008 36.4098 81.9384 40.2923 81.9384 40.2923C85.4979 37.7901 89.3025 36.9028 92.6638 37.087C94.0339 37.162 95.6224 37.6264 97.2488 38.1018C99.9944 38.9043 102.848 39.7386 104.942 38.7852C106.196 38.2144 107.141 36.7971 105.61 35.7426C104.72 35.4647 104.84 34.5929 104.84 34.5929C105.192 33.4485 106.393 33.5041 107.153 33.9288C108.827 34.8642 109.032 36.9934 108.474 38.0725C107.214 40.5109 104.503 41.0622 101.872 40.7776C100.494 40.6282 99.1895 40.1838 98.0143 39.8035ZM81.3206 39.9878C84.3202 35.2056 90.7058 35.1669 96.2032 35.1335C98.8809 35.1173 101.348 35.1023 103.11 34.541C104.347 34.2401 105.118 35.5171 103.177 36.2268C102.583 36.4437 99.491 36.8672 95.0388 36.3752C86.0196 35.3776 81.7026 39.6143 81.3446 39.9655C81.3289 39.981 81.3203 39.9885 81.3203 39.9885L81.3206 39.9878ZM95.8858 36.8896C95.8858 36.8896 101.139 37.7358 103.272 36.7495C103.933 36.4437 104.483 36.25 104.986 36.3532C105.995 36.5592 106.048 37.4411 105.349 37.9907C103.061 39.789 97.9409 37.7216 95.8858 36.8896ZM93.0966 39.79C94.6223 40.7375 95.4821 42.7684 93.5859 44.1991C93.5859 44.1991 91.6007 45.6024 89.743 43.5637C88.6321 41.9756 90.6042 40.6744 91.892 41.883C92.2393 42.2087 92.4771 42.6756 92.0354 43.2369C94.3667 41.8393 92.5732 40.1987 90.1169 39.9029C87.565 39.5956 84.0175 40.1026 82.9588 40.5214C82.9721 40.5143 89.0349 37.271 93.0966 39.79ZM91.6919 41.2328C91.6919 41.2328 90.4472 40.639 89.5974 41.3639C89.5974 41.3639 88.1565 40.4123 86.272 40.6307C87.1925 39.8934 91.7137 40.0998 91.6919 41.2328Z" fill="white"/>
</svg>
